<svg id="svg" version="1.1" xmlns="http://www.w3.org/2000/svg" xmlns:xlink="http://www.w3.org/1999/xlink" width="400" height="184.61538461538464" viewBox="0, 0, 400,184.61538461538464"><g id="svgg"><path id="path0" d="M314.681 95.937 C 314.681 96.153,314.433 96.214,313.556 96.214 C 312.586 96.214,312.417 96.265,312.334 96.584 C 312.247 96.915,311.395 97.105,310.572 96.975 C 310.496 96.963,310.434 97.078,310.434 97.230 C 310.434 97.412,310.252 97.507,309.900 97.507 C 309.595 97.507,309.320 97.626,309.259 97.784 C 309.201 97.936,309.026 98.061,308.870 98.061 C 308.715 98.061,308.587 98.186,308.587 98.338 C 308.587 98.523,308.403 98.615,308.033 98.615 C 307.602 98.615,307.479 98.697,307.479 98.984 C 307.479 99.231,307.356 99.354,307.110 99.354 C 306.905 99.354,306.741 99.477,306.741 99.631 C 306.741 99.783,306.616 99.908,306.464 99.908 C 306.311 99.908,306.187 100.032,306.187 100.185 C 306.187 100.337,306.062 100.462,305.910 100.462 C 305.757 100.462,305.633 100.586,305.633 100.739 C 305.633 100.891,305.500 101.016,305.338 101.016 C 305.176 101.016,305.000 101.182,304.947 101.385 C 304.894 101.588,304.745 101.754,304.617 101.754 C 304.488 101.754,304.337 101.929,304.281 102.142 C 304.226 102.356,304.091 102.475,303.983 102.408 C 303.874 102.341,303.786 102.381,303.786 102.495 C 303.786 102.610,303.661 102.829,303.509 102.981 C 303.356 103.133,303.232 103.454,303.232 103.694 C 303.232 103.968,303.094 104.174,302.862 104.247 C 302.633 104.320,302.493 104.527,302.493 104.794 C 302.493 105.030,302.368 105.272,302.214 105.331 C 302.061 105.389,301.946 105.502,301.959 105.581 C 302.043 106.090,301.901 106.556,301.662 106.556 C 301.444 106.556,301.385 106.812,301.385 107.756 C 301.385 108.700,301.326 108.957,301.108 108.957 C 300.870 108.957,300.831 109.532,300.831 113.025 C 300.831 116.471,300.873 117.110,301.108 117.200 C 301.302 117.275,301.385 117.577,301.385 118.210 C 301.385 118.890,301.454 119.114,301.662 119.114 C 301.847 119.114,301.939 119.299,301.939 119.673 C 301.939 120.001,302.054 120.277,302.216 120.339 C 302.374 120.400,302.493 120.676,302.493 120.980 C 302.493 121.391,302.578 121.514,302.862 121.514 C 303.161 121.514,303.232 121.637,303.232 122.161 C 303.232 122.612,303.315 122.807,303.509 122.807 C 303.661 122.807,303.786 122.932,303.786 123.084 C 303.786 123.236,303.905 123.361,304.051 123.361 C 304.215 123.361,304.338 123.589,304.374 123.961 C 304.417 124.400,304.519 124.555,304.755 124.536 C 304.958 124.520,305.078 124.640,305.078 124.859 C 305.078 125.051,305.203 125.208,305.355 125.208 C 305.508 125.208,305.633 125.332,305.633 125.485 C 305.633 125.637,305.796 125.762,305.996 125.762 C 306.236 125.762,306.325 125.852,306.258 126.028 C 306.185 126.217,306.345 126.329,306.817 126.417 C 307.199 126.489,307.479 126.650,307.479 126.798 C 307.479 126.939,307.604 127.054,307.756 127.054 C 307.909 127.054,308.033 127.179,308.033 127.331 C 308.033 127.516,308.218 127.608,308.587 127.608 C 308.957 127.608,309.141 127.701,309.141 127.886 C 309.141 128.079,309.336 128.163,309.788 128.163 C 310.311 128.163,310.434 128.233,310.434 128.532 C 310.434 128.816,310.557 128.901,310.968 128.901 C 311.273 128.901,311.548 129.020,311.609 129.178 C 311.682 129.368,311.978 129.455,312.552 129.455 C 313.173 129.455,313.389 129.527,313.389 129.732 C 313.389 129.971,313.992 130.009,317.706 130.009 C 321.318 130.009,322.061 129.964,322.253 129.732 C 322.400 129.555,322.808 129.455,323.384 129.455 C 324.061 129.455,324.284 129.387,324.284 129.178 C 324.284 128.992,324.471 128.901,324.856 128.901 C 325.272 128.901,325.453 128.801,325.524 128.532 C 325.592 128.270,325.775 128.163,326.153 128.163 C 326.503 128.163,326.685 128.068,326.685 127.886 C 326.685 127.705,326.866 127.608,327.202 127.608 C 327.549 127.608,327.867 127.429,328.171 127.062 C 328.420 126.762,328.728 126.513,328.855 126.508 C 328.982 126.504,329.086 126.334,329.086 126.131 C 329.086 125.869,329.209 125.762,329.511 125.762 C 330.020 125.762,330.379 125.441,330.379 124.986 C 330.379 124.803,330.503 124.654,330.656 124.654 C 330.808 124.654,330.933 124.538,330.933 124.396 C 330.933 124.255,331.057 124.091,331.210 124.033 C 331.362 123.974,331.487 123.799,331.487 123.644 C 331.487 123.488,331.611 123.361,331.764 123.361 C 331.916 123.361,332.041 123.236,332.041 123.084 C 332.041 122.932,332.156 122.807,332.298 122.807 C 332.580 122.807,332.779 122.419,332.779 121.869 C 332.779 121.674,332.904 121.514,333.056 121.514 C 333.241 121.514,333.333 121.330,333.333 120.960 C 333.333 120.591,333.426 120.406,333.610 120.406 C 333.804 120.406,333.887 120.211,333.887 119.760 C 333.887 119.333,333.974 119.114,334.143 119.114 C 334.452 119.114,334.620 118.550,334.624 117.507 C 334.625 117.000,334.725 116.676,334.912 116.571 C 335.295 116.357,335.241 109.018,334.857 109.095 C 334.696 109.127,334.626 108.855,334.626 108.201 C 334.626 107.415,334.565 107.244,334.257 107.163 C 333.958 107.085,333.887 106.911,333.887 106.252 C 333.887 105.697,333.799 105.402,333.610 105.330 C 333.452 105.269,333.333 104.994,333.333 104.689 C 333.333 104.338,333.239 104.155,333.056 104.155 C 332.904 104.155,332.779 104.036,332.779 103.891 C 332.779 103.745,332.613 103.573,332.410 103.509 C 332.151 103.427,332.041 103.229,332.041 102.850 C 332.041 102.492,331.947 102.308,331.764 102.308 C 331.611 102.308,331.487 102.184,331.487 102.031 C 331.487 101.879,331.362 101.754,331.210 101.754 C 331.057 101.754,330.933 101.627,330.933 101.472 C 330.933 101.316,330.808 101.141,330.656 101.082 C 330.503 101.024,330.379 100.860,330.379 100.719 C 330.379 100.577,330.212 100.462,330.009 100.462 C 329.804 100.462,329.640 100.339,329.640 100.185 C 329.640 100.032,329.515 99.908,329.363 99.908 C 329.211 99.908,329.086 99.783,329.086 99.631 C 329.086 99.478,328.971 99.354,328.830 99.354 C 328.690 99.354,328.531 99.187,328.478 98.984 C 328.408 98.715,328.226 98.615,327.810 98.615 C 327.426 98.615,327.239 98.524,327.239 98.338 C 327.239 98.153,327.054 98.061,326.685 98.061 C 326.316 98.061,326.131 97.969,326.131 97.784 C 326.131 97.590,325.936 97.507,325.485 97.507 C 325.033 97.507,324.838 97.423,324.838 97.230 C 324.838 97.048,324.656 96.953,324.306 96.953 C 323.944 96.953,323.745 96.844,323.685 96.613 C 323.612 96.337,323.392 96.266,322.513 96.237 C 321.782 96.214,321.381 96.114,321.278 95.931 C 321.050 95.523,314.681 95.528,314.681 95.937 " stroke="none" fill="#ec4c74" fill-rule="evenodd"></path><path id="path1" d="M341.828 95.948 C 341.828 96.141,341.595 96.214,340.980 96.214 C 340.287 96.214,340.114 96.282,340.035 96.584 C 339.967 96.845,339.783 96.953,339.406 96.953 C 339.056 96.953,338.873 97.048,338.873 97.230 C 338.873 97.423,338.679 97.507,338.227 97.507 C 337.776 97.507,337.581 97.590,337.581 97.784 C 337.581 97.936,337.456 98.061,337.304 98.061 C 337.151 98.061,337.027 98.176,337.027 98.316 C 337.027 98.457,336.861 98.615,336.657 98.668 C 336.454 98.722,336.288 98.897,336.288 99.059 C 336.288 99.221,336.163 99.354,336.011 99.354 C 335.495 99.354,335.635 101.931,336.179 102.447 C 336.420 102.675,336.709 102.862,336.822 102.862 C 336.935 102.862,337.027 102.987,337.027 103.139 C 337.027 103.292,337.151 103.416,337.304 103.416 C 337.456 103.416,337.581 103.506,337.581 103.616 C 337.581 103.854,339.015 105.263,339.258 105.263 C 339.351 105.263,339.428 105.346,339.428 105.448 C 339.428 105.549,339.760 105.965,340.166 106.371 C 340.572 106.777,340.988 107.110,341.090 107.110 C 341.191 107.110,341.274 107.235,341.274 107.387 C 341.274 107.539,341.399 107.664,341.551 107.664 C 341.704 107.664,341.828 107.740,341.828 107.833 C 341.828 108.076,343.238 109.511,343.476 109.511 C 343.585 109.511,343.675 109.635,343.675 109.788 C 343.675 109.940,343.800 110.065,343.952 110.065 C 344.104 110.065,344.229 110.180,344.229 110.322 C 344.229 110.463,344.354 110.627,344.506 110.685 C 344.658 110.744,344.783 110.919,344.783 111.075 C 344.783 111.230,344.899 111.357,345.040 111.357 C 345.182 111.357,345.345 111.482,345.404 111.634 C 345.462 111.787,345.637 111.911,345.793 111.911 C 345.948 111.911,346.076 112.036,346.076 112.188 C 346.076 112.341,346.200 112.465,346.353 112.465 C 346.505 112.465,346.630 112.555,346.630 112.665 C 346.630 112.903,348.064 114.312,348.307 114.312 C 348.400 114.312,348.476 114.395,348.476 114.497 C 348.476 114.598,348.809 115.014,349.215 115.420 C 349.621 115.826,350.037 116.159,350.139 116.159 C 350.240 116.159,350.323 116.283,350.323 116.436 C 350.323 116.588,350.448 116.713,350.600 116.713 C 350.753 116.713,350.877 116.829,350.877 116.970 C 350.877 117.112,351.002 117.275,351.154 117.334 C 351.307 117.392,351.431 117.567,351.431 117.723 C 351.431 117.878,351.547 118.006,351.688 118.006 C 351.830 118.006,351.994 118.130,352.052 118.283 C 352.110 118.435,352.286 118.560,352.441 118.560 C 352.597 118.560,352.724 118.684,352.724 118.837 C 352.724 118.989,352.849 119.114,353.001 119.114 C 353.153 119.114,353.278 119.238,353.278 119.391 C 353.278 119.543,353.403 119.668,353.555 119.668 C 353.709 119.668,353.832 119.832,353.832 120.037 C 353.832 120.240,353.948 120.406,354.089 120.406 C 354.231 120.406,354.394 120.531,354.453 120.683 C 354.511 120.836,354.686 120.960,354.842 120.960 C 354.997 120.960,355.125 121.085,355.125 121.237 C 355.125 121.390,355.249 121.514,355.402 121.514 C 355.554 121.514,355.679 121.636,355.679 121.785 C 355.679 121.934,355.847 122.146,356.053 122.256 C 356.259 122.366,356.379 122.535,356.319 122.632 C 356.260 122.728,356.343 122.807,356.505 122.807 C 356.666 122.807,356.846 122.932,356.905 123.084 C 356.963 123.236,357.127 123.361,357.268 123.361 C 357.410 123.361,357.525 123.477,357.525 123.618 C 357.525 124.241,360.265 124.347,360.427 123.730 C 360.480 123.527,360.638 123.361,360.779 123.361 C 360.939 123.361,361.034 123.156,361.034 122.807 C 361.034 122.423,361.125 122.253,361.328 122.253 C 361.490 122.253,361.666 122.087,361.719 121.884 C 361.772 121.681,361.931 121.514,362.071 121.514 C 362.232 121.514,362.327 121.309,362.327 120.960 C 362.327 120.591,362.419 120.406,362.604 120.406 C 362.813 120.406,362.881 120.181,362.881 119.483 C 362.881 118.785,362.949 118.560,363.158 118.560 C 363.366 118.560,363.435 118.336,363.435 117.658 C 363.435 116.911,363.499 116.739,363.804 116.659 C 364.159 116.566,364.174 116.407,364.174 112.558 C 364.174 108.708,364.159 108.549,363.804 108.456 C 363.499 108.376,363.435 108.204,363.435 107.458 C 363.435 106.779,363.366 106.556,363.158 106.556 C 362.954 106.556,362.881 106.343,362.881 105.745 C 362.881 105.194,362.792 104.899,362.604 104.827 C 362.452 104.769,362.327 104.508,362.327 104.247 C 362.327 103.987,362.210 103.729,362.068 103.675 C 361.926 103.620,361.767 103.415,361.716 103.219 C 361.665 103.023,361.490 102.862,361.328 102.862 C 361.137 102.862,361.034 102.700,361.034 102.395 C 361.034 102.138,360.910 101.880,360.757 101.821 C 360.605 101.763,360.480 101.645,360.480 101.559 C 360.480 101.320,359.633 100.462,359.397 100.462 C 359.282 100.462,359.187 100.337,359.187 100.185 C 359.187 100.032,359.063 99.908,358.910 99.908 C 358.758 99.908,358.633 99.783,358.633 99.631 C 358.633 99.478,358.509 99.354,358.356 99.354 C 358.204 99.354,358.079 99.238,358.079 99.096 C 358.079 98.814,357.691 98.615,357.141 98.615 C 356.946 98.615,356.787 98.490,356.787 98.338 C 356.787 98.186,356.662 98.061,356.510 98.061 C 356.357 98.061,356.233 97.936,356.233 97.784 C 356.233 97.602,356.050 97.507,355.698 97.507 C 355.394 97.507,355.118 97.388,355.058 97.230 C 354.996 97.068,354.719 96.953,354.392 96.953 C 354.036 96.953,353.832 96.859,353.832 96.696 C 353.832 96.373,353.430 96.214,352.616 96.214 C 352.173 96.214,351.985 96.130,351.985 95.932 C 351.985 95.686,351.345 95.652,346.907 95.666 C 342.616 95.680,341.828 95.723,341.828 95.948 M333.954 102.585 C 333.896 102.738,333.732 102.862,333.591 102.862 C 333.233 102.862,333.250 103.950,333.610 104.088 C 333.763 104.147,333.887 104.401,333.887 104.654 C 333.887 104.958,334.012 105.146,334.257 105.210 C 334.562 105.290,334.626 105.462,334.626 106.208 C 334.626 106.887,334.695 107.110,334.903 107.110 C 335.109 107.110,335.180 107.326,335.180 107.947 C 335.180 108.520,335.267 108.817,335.457 108.890 C 335.680 108.975,335.734 109.388,335.734 110.988 C 335.734 112.588,335.789 113.001,336.011 113.086 C 336.215 113.165,336.288 113.488,336.288 114.319 C 336.288 115.075,336.197 115.538,336.011 115.724 C 335.809 115.926,335.734 116.419,335.734 117.548 C 335.734 118.698,335.666 119.133,335.470 119.243 C 335.319 119.328,335.181 119.746,335.147 120.222 C 335.108 120.765,335.008 121.037,334.857 121.006 C 334.697 120.974,334.626 121.243,334.626 121.884 C 334.626 122.684,334.577 122.807,334.257 122.807 C 333.958 122.807,333.887 122.930,333.887 123.453 C 333.887 123.905,333.804 124.100,333.610 124.100 C 333.387 124.100,333.333 124.387,333.333 125.577 C 333.333 126.717,333.392 127.054,333.591 127.054 C 333.732 127.054,333.896 127.179,333.954 127.331 C 334.013 127.484,334.188 127.608,334.343 127.608 C 334.499 127.608,334.626 127.733,334.626 127.886 C 334.626 128.038,334.751 128.163,334.903 128.163 C 335.055 128.163,335.180 128.290,335.180 128.445 C 335.180 128.601,335.305 128.776,335.457 128.834 C 335.609 128.893,335.734 129.056,335.734 129.198 C 335.734 129.339,335.850 129.455,335.991 129.455 C 336.133 129.455,336.296 129.580,336.355 129.732 C 336.413 129.885,336.588 130.009,336.744 130.009 C 336.900 130.009,337.027 130.136,337.027 130.292 C 337.027 130.448,337.151 130.623,337.304 130.681 C 337.456 130.740,337.581 130.894,337.581 131.023 C 337.581 131.153,337.755 131.305,337.969 131.360 C 338.182 131.416,338.302 131.550,338.235 131.659 C 338.168 131.767,338.234 131.856,338.381 131.856 C 338.529 131.856,338.697 131.981,338.756 132.133 C 338.814 132.285,338.989 132.410,339.145 132.410 C 339.300 132.410,339.428 132.526,339.428 132.667 C 339.428 132.809,339.552 132.972,339.705 133.031 C 339.857 133.089,339.982 133.255,339.982 133.398 C 339.982 133.542,340.156 133.705,340.369 133.761 C 340.583 133.817,340.703 133.951,340.636 134.060 C 340.564 134.175,340.672 134.257,340.894 134.257 C 341.109 134.257,341.274 134.377,341.274 134.534 C 341.274 134.686,341.399 134.811,341.551 134.811 C 341.704 134.811,341.828 134.926,341.828 135.068 C 341.828 135.209,341.953 135.373,342.105 135.432 C 342.258 135.490,342.382 135.665,342.382 135.821 C 342.382 135.976,342.498 136.103,342.640 136.103 C 342.781 136.103,342.945 136.228,343.003 136.380 C 343.062 136.533,343.237 136.657,343.392 136.657 C 343.548 136.657,343.675 136.782,343.675 136.934 C 343.675 137.087,343.790 137.211,343.930 137.211 C 344.071 137.211,344.229 137.378,344.283 137.581 C 344.440 138.183,346.630 138.079,346.630 137.469 C 346.630 137.327,346.754 137.211,346.907 137.211 C 347.059 137.211,347.184 137.087,347.184 136.934 C 347.184 136.782,347.308 136.657,347.461 136.657 C 347.613 136.657,347.738 136.533,347.738 136.380 C 347.738 136.228,347.832 136.103,347.947 136.103 C 348.194 136.103,349.030 135.240,349.030 134.986 C 349.030 134.890,349.155 134.811,349.307 134.811 C 349.460 134.811,349.584 134.686,349.584 134.534 C 349.584 134.381,349.709 134.257,349.861 134.257 C 350.014 134.257,350.139 134.132,350.139 133.980 C 350.139 133.827,350.233 133.703,350.348 133.703 C 350.595 133.703,351.431 132.840,351.431 132.585 C 351.431 132.489,351.556 132.410,351.708 132.410 C 351.861 132.410,351.985 132.285,351.985 132.133 C 351.985 131.981,352.068 131.856,352.170 131.856 C 352.410 131.856,353.832 130.434,353.832 130.194 C 353.832 130.092,353.957 130.009,354.109 130.009 C 354.261 130.009,354.386 129.885,354.386 129.732 C 354.386 129.580,354.465 129.455,354.561 129.455 C 354.815 129.455,355.679 128.619,355.679 128.372 C 355.679 128.257,355.803 128.163,355.956 128.163 C 356.108 128.163,356.233 128.038,356.233 127.886 C 356.233 127.733,356.357 127.608,356.510 127.608 C 356.662 127.608,356.787 127.494,356.787 127.353 C 356.787 127.213,356.953 127.054,357.156 127.001 C 357.474 126.918,357.525 126.749,357.525 125.779 C 357.525 124.777,357.485 124.654,357.156 124.654 C 356.951 124.654,356.787 124.531,356.787 124.377 C 356.787 124.224,356.662 124.100,356.510 124.100 C 356.351 124.100,356.233 123.933,356.233 123.711 C 356.233 123.441,356.148 123.354,355.956 123.428 C 355.767 123.500,355.679 123.418,355.679 123.171 C 355.679 122.971,355.563 122.807,355.421 122.807 C 355.280 122.807,355.116 122.682,355.058 122.530 C 354.999 122.378,354.824 122.253,354.669 122.253 C 354.513 122.253,354.386 122.128,354.386 121.976 C 354.386 121.824,354.261 121.699,354.109 121.699 C 353.955 121.699,353.832 121.535,353.832 121.330 C 353.832 121.124,353.709 120.960,353.555 120.960 C 353.403 120.960,353.278 120.836,353.278 120.683 C 353.278 120.531,353.162 120.406,353.021 120.406 C 352.879 120.406,352.716 120.282,352.657 120.129 C 352.599 119.977,352.424 119.852,352.268 119.852 C 352.112 119.852,351.985 119.725,351.985 119.569 C 351.985 119.414,351.861 119.239,351.708 119.180 C 351.556 119.122,351.431 118.958,351.431 118.817 C 351.431 118.675,351.307 118.560,351.154 118.560 C 351.002 118.560,350.877 118.435,350.877 118.283 C 350.877 118.129,350.713 118.006,350.508 118.006 C 350.303 118.006,350.139 117.882,350.139 117.729 C 350.139 117.576,350.014 117.452,349.861 117.452 C 349.709 117.452,349.584 117.324,349.584 117.169 C 349.584 117.013,349.460 116.838,349.307 116.780 C 349.155 116.721,349.030 116.558,349.030 116.416 C 349.030 116.275,348.906 116.159,348.753 116.159 C 348.601 116.159,348.476 116.034,348.476 115.882 C 348.476 115.728,348.312 115.605,348.107 115.605 C 347.902 115.605,347.738 115.482,347.738 115.328 C 347.738 115.175,347.613 115.051,347.461 115.051 C 347.307 115.051,347.184 114.887,347.184 114.681 C 347.184 114.476,347.061 114.312,346.907 114.312 C 346.754 114.312,346.630 114.187,346.630 114.035 C 346.630 113.883,346.514 113.758,346.372 113.758 C 346.231 113.758,346.067 113.633,346.009 113.481 C 345.950 113.329,345.775 113.204,345.620 113.204 C 345.464 113.204,345.337 113.079,345.337 112.927 C 345.337 112.775,345.212 112.650,345.060 112.650 C 344.906 112.650,344.783 112.486,344.783 112.281 C 344.783 112.076,344.660 111.911,344.506 111.911 C 344.354 111.911,344.229 111.787,344.229 111.634 C 344.229 111.482,344.113 111.357,343.972 111.357 C 343.830 111.357,343.667 111.233,343.608 111.080 C 343.550 110.928,343.375 110.803,343.219 110.803 C 343.064 110.803,342.936 110.676,342.936 110.521 C 342.936 110.365,342.812 110.190,342.659 110.131 C 342.507 110.073,342.382 109.909,342.382 109.768 C 342.382 109.626,342.258 109.511,342.105 109.511 C 341.953 109.511,341.828 109.386,341.828 109.234 C 341.828 109.080,341.664 108.957,341.459 108.957 C 341.254 108.957,341.090 108.833,341.090 108.680 C 341.090 108.527,340.975 108.403,340.834 108.403 C 340.694 108.403,340.533 108.228,340.477 108.015 C 340.421 107.801,340.287 107.681,340.179 107.749 C 340.063 107.820,339.982 107.713,339.982 107.490 C 339.982 107.281,339.866 107.110,339.724 107.110 C 339.583 107.110,339.419 106.985,339.361 106.833 C 339.302 106.681,339.127 106.556,338.972 106.556 C 338.816 106.556,338.689 106.431,338.689 106.279 C 338.689 106.127,338.564 106.002,338.412 106.002 C 338.258 106.002,338.135 105.838,338.135 105.633 C 338.135 105.427,338.012 105.263,337.858 105.263 C 337.705 105.263,337.581 105.139,337.581 104.986 C 337.581 104.834,337.465 104.709,337.324 104.709 C 337.182 104.709,337.018 104.584,336.960 104.432 C 336.902 104.280,336.726 104.155,336.571 104.155 C 336.415 104.155,336.288 104.030,336.288 103.878 C 336.288 103.726,336.163 103.601,336.011 103.601 C 335.857 103.601,335.734 103.437,335.734 103.232 C 335.734 103.029,335.618 102.862,335.477 102.862 C 335.335 102.862,335.172 102.738,335.113 102.585 C 335.055 102.433,334.794 102.308,334.534 102.308 C 334.273 102.308,334.013 102.433,333.954 102.585 M324.493 132.576 C 324.353 132.664,324.277 132.850,324.323 132.988 C 324.382 133.164,324.475 133.114,324.629 132.825 C 324.875 132.366,324.862 132.342,324.493 132.576 M319.543 134.494 C 319.384 134.750,319.539 134.753,320.222 134.505 L 320.868 134.271 320.254 134.304 C 319.916 134.322,319.596 134.408,319.543 134.494 M343.675 138.766 C 343.675 138.927,343.768 139.058,343.882 139.058 C 344.017 139.058,344.001 139.166,343.836 139.365 C 343.619 139.628,343.622 139.659,343.860 139.581 C 344.194 139.470,344.231 138.659,343.906 138.550 C 343.779 138.508,343.675 138.605,343.675 138.766 M341.874 141.980 C 341.646 142.233,341.459 142.523,341.459 142.623 C 341.459 142.723,341.671 142.577,341.930 142.298 C 342.188 142.018,342.375 141.729,342.345 141.654 C 342.315 141.579,342.103 141.726,341.874 141.980 M339.344 144.514 C 338.727 145.180,338.870 145.323,339.511 144.682 C 339.782 144.411,339.962 144.148,339.911 144.097 C 339.859 144.045,339.604 144.233,339.344 144.514 M336.894 146.952 C 336.566 147.283,336.375 147.553,336.468 147.553 C 336.720 147.553,337.628 146.670,337.553 146.498 C 337.517 146.417,337.221 146.621,336.894 146.952 M334.832 149.052 C 334.409 149.475,334.100 149.858,334.144 149.903 C 334.189 149.948,334.572 149.638,334.995 149.215 C 335.419 148.792,335.728 148.409,335.683 148.364 C 335.639 148.319,335.256 148.629,334.832 149.052 " stroke="none" fill="#2e7eef" fill-rule="evenodd"></path><path id="path2" d="M330.933 127.923 C 330.933 128.061,330.808 128.222,330.656 128.280 C 330.503 128.339,330.379 128.502,330.379 128.644 C 330.379 128.785,330.251 128.901,330.096 128.901 C 329.940 128.901,329.765 129.026,329.707 129.178 C 329.648 129.331,329.485 129.455,329.343 129.455 C 329.202 129.455,329.086 129.580,329.086 129.732 C 329.086 129.885,328.960 130.009,328.807 130.009 C 328.654 130.009,328.386 130.175,328.212 130.379 C 328.038 130.582,327.806 130.748,327.697 130.748 C 327.588 130.748,327.295 130.994,327.046 131.294 C 326.797 131.595,326.424 131.844,326.218 131.848 C 326.012 131.852,325.699 132.026,325.521 132.233 C 325.343 132.441,325.121 132.563,325.027 132.505 C 324.934 132.447,324.767 132.568,324.657 132.774 C 324.537 132.997,324.269 133.149,323.995 133.149 C 323.742 133.149,323.486 133.273,323.428 133.426 C 323.366 133.588,323.089 133.703,322.761 133.703 C 322.453 133.703,322.109 133.827,321.996 133.979 C 321.870 134.150,321.426 134.274,320.841 134.303 C 320.319 134.328,319.923 134.403,319.963 134.468 C 320.067 134.640,319.541 134.811,318.908 134.811 C 318.558 134.811,318.321 134.926,318.244 135.134 C 318.178 135.312,318.046 135.510,317.950 135.575 C 317.630 135.789,317.598 137.024,317.908 137.143 C 318.063 137.202,318.190 137.367,318.190 137.508 C 318.190 137.650,318.294 137.768,318.421 137.772 C 318.548 137.775,319.067 138.242,319.575 138.810 C 320.083 139.378,320.604 139.936,320.733 140.051 C 321.838 141.032,327.239 146.499,327.239 146.637 C 327.239 146.735,327.316 146.814,327.409 146.814 C 327.562 146.814,328.479 147.678,329.588 148.868 C 331.098 150.489,331.173 150.530,332.531 150.471 C 333.226 150.440,333.777 150.356,333.756 150.284 C 333.699 150.093,335.800 147.982,335.966 148.063 C 336.043 148.100,336.160 147.991,336.225 147.820 C 336.365 147.457,337.526 146.260,337.739 146.260 C 337.819 146.260,338.169 145.913,338.517 145.489 C 339.279 144.562,339.541 144.300,340.417 143.597 C 340.787 143.300,341.090 142.942,341.090 142.801 C 341.090 142.660,341.173 142.597,341.274 142.659 C 341.376 142.722,341.459 142.698,341.459 142.605 C 341.459 142.353,342.248 141.550,342.644 141.398 C 342.834 141.325,342.939 141.215,342.877 141.153 C 342.815 141.091,342.970 140.879,343.221 140.681 C 343.473 140.483,343.640 140.260,343.594 140.184 C 343.547 140.109,343.625 139.825,343.766 139.553 C 343.907 139.281,343.944 139.058,343.849 139.058 C 343.753 139.058,343.675 138.843,343.675 138.579 C 343.675 138.256,343.555 138.069,343.306 138.004 C 343.102 137.951,342.936 137.837,342.936 137.752 C 342.936 137.510,341.542 136.103,341.303 136.103 C 341.186 136.103,341.090 135.979,341.090 135.826 C 341.090 135.674,340.965 135.549,340.813 135.549 C 340.660 135.549,340.536 135.453,340.536 135.336 C 340.536 135.085,339.123 133.703,338.866 133.703 C 338.768 133.703,338.689 133.578,338.689 133.426 C 338.689 133.273,338.564 133.149,338.412 133.149 C 338.258 133.149,338.135 132.985,338.135 132.779 C 338.135 132.576,338.049 132.410,337.944 132.410 C 337.839 132.410,337.509 132.161,337.211 131.856 C 336.914 131.551,336.584 131.302,336.479 131.302 C 336.374 131.302,336.288 131.177,336.288 131.025 C 336.288 130.873,336.163 130.748,336.011 130.748 C 335.859 130.748,335.734 130.655,335.734 130.542 C 335.734 130.273,334.362 128.901,334.094 128.901 C 333.980 128.901,333.887 128.822,333.887 128.726 C 333.887 128.630,333.687 128.334,333.441 128.070 C 332.931 127.519,330.933 127.402,330.933 127.923 " stroke="none" fill="#64a4f4" fill-rule="evenodd"></path><path id="path3" d="M225.300 59.741 C 225.300 59.926,225.115 60.018,224.746 60.018 C 224.396 60.018,224.192 60.113,224.192 60.275 C 224.192 60.422,223.916 60.583,223.546 60.653 C 223.159 60.725,222.899 60.882,222.899 61.043 C 222.899 61.190,222.775 61.311,222.622 61.311 C 222.470 61.311,222.345 61.436,222.345 61.588 C 222.345 61.741,222.221 61.865,222.068 61.865 C 221.916 61.865,221.791 61.980,221.791 62.121 C 221.791 62.261,221.625 62.420,221.422 62.473 C 221.219 62.526,221.053 62.702,221.053 62.864 C 221.053 63.025,220.928 63.158,220.776 63.158 C 220.591 63.158,220.499 63.343,220.499 63.712 C 220.499 64.081,220.406 64.266,220.222 64.266 C 220.028 64.266,219.945 64.461,219.945 64.912 C 219.945 65.364,219.861 65.559,219.668 65.559 C 219.432 65.559,219.391 66.041,219.391 68.790 C 219.391 71.540,219.432 72.022,219.668 72.022 C 219.861 72.022,219.945 72.217,219.945 72.669 C 219.945 73.120,220.028 73.315,220.222 73.315 C 220.407 73.315,220.499 73.500,220.499 73.875 C 220.499 74.202,220.614 74.479,220.776 74.541 C 220.928 74.599,221.053 74.763,221.053 74.904 C 221.053 75.046,221.219 75.162,221.422 75.162 C 221.627 75.162,221.791 75.285,221.791 75.439 C 221.791 75.591,221.916 75.716,222.068 75.716 C 222.221 75.716,222.345 75.840,222.345 75.993 C 222.345 76.145,222.470 76.270,222.622 76.270 C 222.776 76.270,222.899 76.434,222.899 76.639 C 222.899 76.848,223.022 77.008,223.182 77.008 C 223.338 77.008,223.513 77.133,223.571 77.285 C 223.632 77.443,223.907 77.562,224.212 77.562 C 224.564 77.562,224.746 77.657,224.746 77.839 C 224.746 78.057,225.003 78.116,225.946 78.116 C 226.890 78.116,227.147 78.176,227.147 78.393 C 227.147 78.620,227.463 78.670,228.881 78.670 C 230.253 78.670,230.638 78.612,230.722 78.393 C 230.800 78.190,231.121 78.116,231.923 78.116 C 232.725 78.116,233.045 78.042,233.123 77.839 C 233.182 77.687,233.442 77.562,233.703 77.562 C 233.963 77.562,234.224 77.438,234.282 77.285 C 234.341 77.133,234.504 77.008,234.646 77.008 C 234.787 77.008,234.903 76.842,234.903 76.639 C 234.903 76.393,235.026 76.270,235.272 76.270 C 235.478 76.270,235.642 76.147,235.642 75.993 C 235.642 75.840,235.766 75.716,235.919 75.716 C 236.071 75.716,236.196 75.591,236.196 75.439 C 236.196 75.286,236.320 75.162,236.473 75.162 C 236.625 75.162,236.750 75.057,236.750 74.929 C 236.750 74.801,236.916 74.593,237.119 74.466 C 237.328 74.335,237.488 74.035,237.488 73.775 C 237.488 73.489,237.593 73.315,237.765 73.315 C 237.975 73.315,238.042 73.089,238.042 72.392 C 238.042 71.694,238.110 71.468,238.319 71.468 C 238.553 71.468,238.596 71.048,238.596 68.790 C 238.596 66.533,238.553 66.113,238.319 66.113 C 238.114 66.113,238.042 65.897,238.042 65.276 C 238.042 64.702,237.955 64.406,237.765 64.333 C 237.613 64.274,237.488 64.111,237.488 63.969 C 237.488 63.828,237.322 63.712,237.119 63.712 C 236.820 63.712,236.750 63.589,236.750 63.066 C 236.750 62.614,236.666 62.419,236.473 62.419 C 236.320 62.419,236.196 62.295,236.196 62.142 C 236.196 61.990,236.071 61.865,235.919 61.865 C 235.766 61.865,235.642 61.741,235.642 61.588 C 235.642 61.434,235.478 61.311,235.272 61.311 C 235.065 61.311,234.903 61.188,234.903 61.030 C 234.903 60.866,234.676 60.703,234.361 60.639 C 234.063 60.580,233.774 60.416,233.720 60.275 C 233.666 60.134,233.370 60.018,233.062 60.018 C 232.688 60.018,232.502 59.927,232.502 59.741 C 232.502 59.505,231.979 59.464,228.901 59.464 C 225.823 59.464,225.300 59.505,225.300 59.741 M34.164 66.667 C 34.164 69.170,34.207 69.621,34.441 69.621 C 34.595 69.621,34.718 69.786,34.718 69.991 C 34.718 70.311,34.841 70.360,35.642 70.360 C 36.339 70.360,36.565 70.428,36.565 70.637 C 36.565 70.822,36.750 70.914,37.119 70.914 C 37.488 70.914,37.673 71.006,37.673 71.191 C 37.673 71.385,37.868 71.468,38.319 71.468 C 38.675 71.468,38.966 71.561,38.966 71.675 C 38.966 71.943,40.338 73.315,40.606 73.315 C 40.720 73.315,40.813 73.440,40.813 73.592 C 40.813 73.744,40.937 73.869,41.090 73.869 C 41.299 73.869,41.367 74.095,41.367 74.792 C 41.367 75.490,41.434 75.716,41.644 75.716 C 42.065 75.716,42.065 118.465,41.644 118.626 C 41.454 118.699,41.367 118.996,41.367 119.569 C 41.367 120.190,41.295 120.406,41.090 120.406 C 40.896 120.406,40.813 120.601,40.813 121.053 C 40.813 121.576,40.742 121.699,40.443 121.699 C 40.238 121.699,40.074 121.822,40.074 121.976 C 40.074 122.128,39.949 122.253,39.797 122.253 C 39.645 122.253,39.520 122.378,39.520 122.530 C 39.520 122.715,39.335 122.807,38.966 122.807 C 38.596 122.807,38.412 122.899,38.412 123.084 C 38.412 123.236,38.252 123.361,38.058 123.361 C 37.507 123.361,37.119 123.560,37.119 123.842 C 37.119 124.003,36.918 124.100,36.585 124.100 C 36.280 124.100,36.005 124.219,35.944 124.377 C 35.871 124.567,35.575 124.654,35.001 124.654 L 34.164 124.654 34.164 127.331 L 34.164 130.009 46.537 130.009 L 58.910 130.009 58.910 127.684 C 58.910 125.513,58.886 125.351,58.541 125.261 C 58.338 125.208,58.172 125.050,58.172 124.909 C 58.172 124.726,57.911 124.654,57.248 124.654 C 56.551 124.654,56.325 124.586,56.325 124.377 C 56.325 124.195,56.143 124.100,55.793 124.100 C 55.415 124.100,55.232 123.992,55.163 123.730 C 55.093 123.461,54.912 123.361,54.496 123.361 C 54.111 123.361,53.924 123.271,53.924 123.084 C 53.924 122.899,53.740 122.807,53.370 122.807 C 53.001 122.807,52.816 122.715,52.816 122.530 C 52.816 122.378,52.700 122.253,52.559 122.253 C 52.418 122.253,52.254 122.128,52.195 121.976 C 52.137 121.824,51.962 121.699,51.806 121.699 C 51.647 121.699,51.524 121.538,51.524 121.330 C 51.524 121.124,51.400 120.960,51.247 120.960 C 51.094 120.960,50.970 120.836,50.970 120.683 C 50.970 120.531,50.845 120.406,50.693 120.406 C 50.477 120.406,50.416 120.159,50.416 119.292 C 50.416 118.473,50.342 118.151,50.139 118.072 C 49.895 117.979,49.861 115.920,49.861 101.088 C 49.861 86.209,49.894 84.211,50.139 84.211 C 50.323 84.211,50.416 84.395,50.416 84.765 C 50.416 85.134,50.508 85.319,50.693 85.319 C 50.886 85.319,50.970 85.513,50.970 85.965 C 50.970 86.416,51.053 86.611,51.247 86.611 C 51.431 86.611,51.524 86.796,51.524 87.165 C 51.524 87.596,51.606 87.719,51.893 87.719 C 52.213 87.719,52.262 87.842,52.262 88.643 C 52.262 89.340,52.330 89.566,52.539 89.566 C 52.725 89.566,52.816 89.751,52.816 90.126 C 52.816 90.453,52.931 90.730,53.093 90.792 C 53.246 90.850,53.370 91.100,53.370 91.346 C 53.370 91.592,53.487 91.838,53.629 91.893 C 53.771 91.948,53.941 92.277,54.007 92.626 C 54.078 93.003,54.235 93.259,54.394 93.259 C 54.570 93.259,54.663 93.452,54.663 93.813 C 54.663 94.183,54.755 94.367,54.940 94.367 C 55.133 94.367,55.217 94.562,55.217 95.014 C 55.217 95.465,55.301 95.660,55.494 95.660 C 55.679 95.660,55.771 95.846,55.771 96.220 C 55.771 96.528,55.886 96.824,56.027 96.878 C 56.168 96.932,56.332 97.221,56.392 97.519 C 56.455 97.834,56.618 98.061,56.782 98.061 C 56.973 98.061,57.064 98.242,57.064 98.621 C 57.064 98.948,57.179 99.225,57.341 99.287 C 57.529 99.359,57.618 99.654,57.618 100.204 C 57.618 100.802,57.691 101.016,57.895 101.016 C 58.081 101.016,58.172 101.202,58.172 101.587 C 58.172 102.003,58.272 102.185,58.541 102.255 C 58.803 102.323,58.910 102.507,58.910 102.884 C 58.910 103.234,59.005 103.416,59.187 103.416 C 59.381 103.416,59.464 103.611,59.464 104.063 C 59.464 104.514,59.548 104.709,59.741 104.709 C 59.926 104.709,60.018 104.894,60.018 105.263 C 60.018 105.633,60.111 105.817,60.295 105.817 C 60.482 105.817,60.572 106.004,60.572 106.388 C 60.572 106.804,60.673 106.986,60.942 107.056 C 61.219 107.129,61.311 107.308,61.311 107.778 C 61.311 108.210,61.397 108.403,61.588 108.403 C 61.773 108.403,61.865 108.587,61.865 108.957 C 61.865 109.326,61.958 109.511,62.142 109.511 C 62.328 109.511,62.419 109.696,62.419 110.070 C 62.419 110.398,62.534 110.674,62.696 110.737 C 62.849 110.795,62.973 111.049,62.973 111.302 C 62.973 111.606,63.098 111.794,63.343 111.858 C 63.620 111.930,63.712 112.110,63.712 112.579 C 63.712 113.012,63.797 113.204,63.989 113.204 C 64.174 113.204,64.266 113.389,64.266 113.758 C 64.266 114.127,64.358 114.312,64.543 114.312 C 64.736 114.312,64.820 114.507,64.820 114.958 C 64.820 115.384,64.907 115.605,65.074 115.605 C 65.214 115.605,65.378 115.854,65.439 116.159 C 65.504 116.484,65.666 116.713,65.831 116.713 C 66.030 116.713,66.113 116.903,66.113 117.359 C 66.113 117.811,66.196 118.006,66.390 118.006 C 66.574 118.006,66.667 118.190,66.667 118.560 C 66.667 118.929,66.759 119.114,66.944 119.114 C 67.137 119.114,67.221 119.309,67.221 119.760 C 67.221 120.283,67.291 120.406,67.590 120.406 C 67.877 120.406,67.959 120.529,67.959 120.960 C 67.959 121.330,68.052 121.514,68.236 121.514 C 68.430 121.514,68.513 121.709,68.513 122.161 C 68.513 122.612,68.597 122.807,68.790 122.807 C 68.943 122.807,69.067 122.932,69.067 123.084 C 69.067 123.236,69.192 123.361,69.344 123.361 C 69.497 123.361,69.621 123.520,69.621 123.715 C 69.621 124.387,69.837 124.654,70.380 124.654 C 70.732 124.654,70.914 124.748,70.914 124.931 C 70.914 125.161,71.273 125.208,73.038 125.208 C 74.803 125.208,75.162 125.161,75.162 124.931 C 75.162 124.778,75.286 124.654,75.439 124.654 C 75.591 124.654,75.716 124.529,75.716 124.377 C 75.716 124.224,75.840 124.100,75.993 124.100 C 76.145 124.100,76.270 123.943,76.270 123.752 C 76.270 123.559,76.435 123.361,76.639 123.308 C 76.889 123.242,77.008 123.056,77.008 122.732 C 77.008 122.429,77.110 122.253,77.285 122.253 C 77.479 122.253,77.562 122.058,77.562 121.607 C 77.562 121.155,77.646 120.960,77.839 120.960 C 78.024 120.960,78.116 120.776,78.116 120.406 C 78.116 120.037,78.209 119.852,78.393 119.852 C 78.585 119.852,78.670 119.660,78.670 119.227 C 78.670 118.758,78.762 118.579,79.040 118.506 C 79.291 118.440,79.409 118.254,79.409 117.925 C 79.409 117.658,79.534 117.392,79.686 117.334 C 79.844 117.273,79.963 116.998,79.963 116.693 C 79.963 116.341,80.058 116.159,80.240 116.159 C 80.449 116.159,80.517 115.933,80.517 115.235 C 80.517 114.538,80.585 114.312,80.794 114.312 C 80.976 114.312,81.071 114.130,81.071 113.780 C 81.071 113.402,81.179 113.219,81.440 113.151 C 81.709 113.080,81.810 112.899,81.810 112.483 C 81.810 112.098,81.900 111.911,82.087 111.911 C 82.296 111.911,82.364 111.686,82.364 110.988 C 82.364 110.290,82.432 110.065,82.641 110.065 C 82.825 110.065,82.918 109.880,82.918 109.511 C 82.918 109.141,83.010 108.957,83.195 108.957 C 83.388 108.957,83.472 108.762,83.472 108.310 C 83.472 107.787,83.542 107.664,83.841 107.664 C 84.125 107.664,84.211 107.541,84.211 107.130 C 84.211 106.825,84.330 106.550,84.488 106.489 C 84.677 106.416,84.765 106.119,84.765 105.546 C 84.765 104.925,84.836 104.709,85.042 104.709 C 85.235 104.709,85.319 104.514,85.319 104.063 C 85.319 103.540,85.389 103.416,85.688 103.416 C 85.972 103.416,86.057 103.293,86.057 102.882 C 86.057 102.578,86.176 102.302,86.334 102.242 C 86.496 102.179,86.611 101.903,86.611 101.576 C 86.611 101.201,86.703 101.016,86.888 101.016 C 87.093 101.016,87.165 100.800,87.165 100.185 C 87.165 99.569,87.237 99.354,87.442 99.354 C 87.634 99.354,87.719 99.161,87.719 98.729 C 87.719 98.259,87.811 98.080,88.089 98.007 C 88.340 97.942,88.458 97.756,88.458 97.426 C 88.458 97.159,88.583 96.893,88.735 96.835 C 88.923 96.763,89.012 96.468,89.012 95.917 C 89.012 95.319,89.085 95.106,89.289 95.106 C 89.482 95.106,89.566 94.911,89.566 94.460 C 89.566 94.008,89.650 93.813,89.843 93.813 C 90.026 93.813,90.120 93.630,90.120 93.272 C 90.120 92.893,90.231 92.695,90.489 92.613 C 90.786 92.519,90.859 92.334,90.859 91.677 C 90.859 91.073,90.931 90.859,91.136 90.859 C 91.329 90.859,91.413 90.664,91.413 90.212 C 91.413 89.761,91.496 89.566,91.690 89.566 C 91.874 89.566,91.967 89.381,91.967 89.012 C 91.967 88.643,92.059 88.458,92.244 88.458 C 92.437 88.458,92.521 88.263,92.521 87.812 C 92.521 87.288,92.591 87.165,92.890 87.165 C 93.210 87.165,93.259 87.042,93.259 86.242 C 93.259 85.544,93.327 85.319,93.536 85.319 C 93.721 85.319,93.813 85.134,93.813 84.765 C 93.813 84.395,93.906 84.211,94.090 84.211 C 94.334 84.211,94.367 85.944,94.367 98.707 C 94.367 111.470,94.334 113.204,94.090 113.204 C 93.854 113.204,93.813 113.727,93.813 116.805 C 93.813 119.883,93.773 120.406,93.536 120.406 C 93.343 120.406,93.259 120.601,93.259 121.053 C 93.259 121.510,93.177 121.699,92.977 121.699 C 92.821 121.699,92.646 121.824,92.588 121.976 C 92.527 122.134,92.252 122.253,91.947 122.253 C 91.595 122.253,91.413 122.348,91.413 122.530 C 91.413 122.682,91.288 122.807,91.136 122.807 C 90.983 122.807,90.859 122.932,90.859 123.084 C 90.859 123.236,90.699 123.361,90.504 123.361 C 89.954 123.361,89.566 123.560,89.566 123.842 C 89.566 124.005,89.362 124.100,89.012 124.100 C 88.643 124.100,88.458 124.192,88.458 124.377 C 88.458 124.586,88.232 124.654,87.535 124.654 C 86.837 124.654,86.611 124.721,86.611 124.931 C 86.611 125.083,86.487 125.208,86.334 125.208 C 86.102 125.208,86.057 125.598,86.057 127.608 L 86.057 130.009 104.155 130.009 L 122.253 130.009 122.253 127.684 C 122.253 125.513,122.228 125.351,121.884 125.261 C 121.681 125.208,121.514 125.050,121.514 124.909 C 121.514 124.726,121.254 124.654,120.591 124.654 C 119.893 124.654,119.668 124.586,119.668 124.377 C 119.668 124.195,119.485 124.100,119.135 124.100 C 118.758 124.100,118.574 123.992,118.506 123.730 C 118.436 123.461,118.254 123.361,117.838 123.361 C 117.453 123.361,117.267 123.271,117.267 123.084 C 117.267 122.899,117.082 122.807,116.713 122.807 C 116.343 122.807,116.159 122.715,116.159 122.530 C 116.159 122.378,116.034 122.253,115.882 122.253 C 115.729 122.253,115.605 122.128,115.605 121.976 C 115.605 121.822,115.441 121.699,115.235 121.699 C 114.989 121.699,114.866 121.576,114.866 121.330 C 114.866 121.124,114.743 120.960,114.589 120.960 C 114.404 120.960,114.312 120.776,114.312 120.406 C 114.312 120.037,114.220 119.852,114.035 119.852 C 113.790 119.852,113.758 117.144,113.758 96.584 C 113.758 76.023,113.790 73.315,114.035 73.315 C 114.187 73.315,114.312 73.190,114.312 73.038 C 114.312 72.886,114.437 72.761,114.589 72.761 C 114.741 72.761,114.868 72.657,114.869 72.530 C 114.873 72.248,115.670 71.468,115.954 71.468 C 116.067 71.468,116.159 71.343,116.159 71.191 C 116.159 70.987,116.372 70.914,116.970 70.914 C 117.521 70.914,117.815 70.825,117.888 70.637 C 117.964 70.437,118.278 70.360,119.014 70.360 C 119.834 70.360,120.079 70.288,120.264 69.991 C 120.405 69.766,120.695 69.621,121.005 69.621 L 121.514 69.621 121.514 66.944 C 121.514 64.687,121.471 64.266,121.237 64.266 C 121.085 64.266,120.960 64.141,120.960 63.989 C 120.960 63.745,119.462 63.712,108.587 63.712 C 97.712 63.712,96.214 63.745,96.214 63.989 C 96.214 64.174,96.030 64.266,95.660 64.266 C 95.291 64.266,95.106 64.358,95.106 64.543 C 95.106 64.697,94.942 64.820,94.737 64.820 C 94.491 64.820,94.367 64.943,94.367 65.189 C 94.367 65.394,94.244 65.559,94.090 65.559 C 93.906 65.559,93.813 65.743,93.813 66.113 C 93.813 66.482,93.721 66.667,93.536 66.667 C 93.327 66.667,93.259 66.892,93.259 67.590 C 93.259 68.294,93.193 68.513,92.978 68.513 C 92.814 68.513,92.651 68.740,92.588 69.056 C 92.528 69.354,92.364 69.642,92.223 69.696 C 92.082 69.750,91.967 70.046,91.967 70.354 C 91.967 70.729,91.875 70.914,91.690 70.914 C 91.496 70.914,91.413 71.109,91.413 71.560 C 91.413 72.012,91.329 72.207,91.136 72.207 C 90.932 72.207,90.859 72.420,90.859 73.016 C 90.859 73.670,90.788 73.844,90.489 73.922 C 90.220 73.993,90.120 74.174,90.120 74.590 C 90.120 74.975,90.030 75.162,89.843 75.162 C 89.658 75.162,89.566 75.347,89.566 75.721 C 89.566 76.049,89.451 76.325,89.289 76.388 C 89.131 76.448,89.012 76.724,89.012 77.028 C 89.012 77.380,88.917 77.562,88.735 77.562 C 88.526 77.562,88.458 77.788,88.458 78.486 C 88.458 79.286,88.409 79.409,88.089 79.409 C 87.801 79.409,87.719 79.532,87.719 79.963 C 87.719 80.332,87.627 80.517,87.442 80.517 C 87.249 80.517,87.165 80.712,87.165 81.163 C 87.165 81.615,87.082 81.810,86.888 81.810 C 86.706 81.810,86.611 81.992,86.611 82.344 C 86.611 82.649,86.492 82.924,86.334 82.985 C 86.176 83.045,86.057 83.321,86.057 83.629 C 86.057 84.012,85.951 84.195,85.688 84.264 C 85.386 84.343,85.319 84.516,85.319 85.209 C 85.319 85.840,85.248 86.057,85.042 86.057 C 84.857 86.057,84.765 86.242,84.765 86.611 C 84.765 86.981,84.672 87.165,84.488 87.165 C 84.294 87.165,84.211 87.360,84.211 87.812 C 84.211 88.263,84.127 88.458,83.934 88.458 C 83.780 88.458,83.657 88.622,83.657 88.827 C 83.657 89.030,83.490 89.363,83.287 89.566 C 83.041 89.812,82.918 90.182,82.918 90.674 C 82.918 91.208,82.841 91.413,82.641 91.413 C 82.447 91.413,82.364 91.608,82.364 92.059 C 82.364 92.511,82.280 92.705,82.087 92.705 C 81.902 92.705,81.810 92.890,81.810 93.259 C 81.810 93.610,81.715 93.813,81.553 93.813 C 81.274 93.813,81.071 94.200,81.071 94.732 C 81.071 94.916,80.946 95.115,80.794 95.173 C 80.604 95.246,80.517 95.543,80.517 96.116 C 80.517 96.737,80.446 96.953,80.240 96.953 C 80.055 96.953,79.963 97.138,79.963 97.507 C 79.963 97.876,79.871 98.061,79.686 98.061 C 79.494 98.061,79.409 98.253,79.409 98.686 C 79.409 99.155,79.317 99.335,79.040 99.407 C 78.795 99.471,78.670 99.659,78.670 99.963 C 78.670 100.216,78.546 100.470,78.393 100.528 C 78.241 100.587,78.116 100.762,78.116 100.918 C 78.116 101.073,77.992 101.200,77.839 101.200 C 77.654 101.200,77.562 101.015,77.562 100.641 C 77.562 100.313,77.447 100.037,77.285 99.974 C 77.133 99.916,77.008 99.718,77.008 99.534 C 77.008 99.002,76.806 98.615,76.527 98.615 C 76.364 98.615,76.270 98.411,76.270 98.061 C 76.270 97.692,76.177 97.507,75.993 97.507 C 75.799 97.507,75.716 97.312,75.716 96.861 C 75.716 96.409,75.632 96.214,75.439 96.214 C 75.254 96.214,75.162 96.030,75.162 95.660 C 75.162 95.229,75.080 95.106,74.792 95.106 C 74.493 95.106,74.423 94.983,74.423 94.460 C 74.423 94.008,74.339 93.813,74.146 93.813 C 73.942 93.813,73.869 93.600,73.869 93.002 C 73.869 92.451,73.780 92.157,73.592 92.085 C 73.440 92.026,73.315 91.765,73.315 91.505 C 73.315 91.245,73.190 90.984,73.038 90.926 C 72.886 90.867,72.761 90.621,72.761 90.379 C 72.761 90.137,72.595 89.835,72.392 89.708 C 72.167 89.568,72.022 89.277,72.022 88.968 C 72.022 88.638,71.924 88.458,71.745 88.458 C 71.552 88.458,71.468 88.263,71.468 87.812 C 71.468 87.360,71.385 87.165,71.191 87.165 C 71.006 87.165,70.914 86.981,70.914 86.611 C 70.914 86.242,70.822 86.057,70.637 86.057 C 70.451 86.057,70.360 85.871,70.360 85.486 C 70.360 85.070,70.260 84.888,69.991 84.818 C 69.694 84.740,69.621 84.566,69.621 83.932 C 69.621 83.400,69.531 83.107,69.344 83.036 C 69.182 82.974,69.067 82.697,69.067 82.370 C 69.067 81.995,68.976 81.810,68.790 81.810 C 68.608 81.810,68.513 81.627,68.513 81.276 C 68.513 80.971,68.394 80.696,68.236 80.635 C 68.084 80.577,67.959 80.311,67.959 80.044 C 67.959 79.714,67.841 79.528,67.590 79.463 C 67.312 79.390,67.221 79.211,67.221 78.741 C 67.221 78.309,67.135 78.116,66.944 78.116 C 66.759 78.116,66.667 77.932,66.667 77.562 C 66.667 77.193,66.574 77.008,66.390 77.008 C 66.196 77.008,66.113 76.813,66.113 76.362 C 66.113 75.839,66.042 75.716,65.743 75.716 C 65.456 75.716,65.374 75.592,65.374 75.162 C 65.374 74.792,65.282 74.608,65.097 74.608 C 64.888 74.608,64.820 74.382,64.820 73.684 C 64.820 72.987,64.752 72.761,64.543 72.761 C 64.358 72.761,64.266 72.576,64.266 72.201 C 64.266 71.893,64.151 71.597,64.010 71.543 C 63.869 71.489,63.705 71.201,63.645 70.902 C 63.582 70.587,63.419 70.360,63.255 70.360 C 63.056 70.360,62.973 70.170,62.973 69.714 C 62.973 69.262,62.890 69.067,62.696 69.067 C 62.512 69.067,62.419 68.883,62.419 68.513 C 62.419 68.144,62.327 67.959,62.142 67.959 C 61.949 67.959,61.865 67.764,61.865 67.313 C 61.865 66.889,61.778 66.667,61.612 66.667 C 61.455 66.667,61.320 66.373,61.255 65.888 C 61.198 65.460,61.021 65.015,60.862 64.898 C 60.703 64.782,60.572 64.592,60.572 64.476 C 60.572 64.351,60.245 64.266,59.761 64.266 C 59.210 64.266,58.916 64.177,58.844 63.989 C 58.751 63.747,57.202 63.712,46.451 63.712 L 34.164 63.712 34.164 66.667 M192.297 69.991 C 192.225 70.268,192.045 70.360,191.576 70.360 C 191.144 70.360,190.951 70.445,190.951 70.637 C 190.951 70.789,190.826 70.914,190.674 70.914 C 190.481 70.914,190.397 71.109,190.397 71.560 C 190.397 71.988,190.310 72.207,190.142 72.207 C 189.877 72.207,189.665 72.747,189.661 73.434 C 189.659 73.651,189.534 73.877,189.381 73.936 C 189.219 73.998,189.104 74.275,189.104 74.602 C 189.104 74.976,189.013 75.162,188.827 75.162 C 188.645 75.162,188.550 75.344,188.550 75.696 C 188.550 76.000,188.431 76.276,188.273 76.336 C 188.111 76.399,187.996 76.675,187.996 77.003 C 187.996 77.439,187.915 77.562,187.627 77.562 C 187.424 77.562,187.258 77.678,187.258 77.820 C 187.258 77.961,187.133 78.125,186.981 78.183 C 186.828 78.242,186.704 78.417,186.704 78.572 C 186.704 78.728,186.579 78.855,186.427 78.855 C 186.274 78.855,186.150 78.980,186.150 79.132 C 186.150 79.284,186.025 79.409,185.873 79.409 C 185.720 79.409,185.596 79.534,185.596 79.686 C 185.596 79.871,185.410 79.963,185.036 79.963 C 184.709 79.963,184.432 80.078,184.370 80.240 C 184.311 80.392,184.148 80.517,184.006 80.517 C 183.865 80.517,183.749 80.683,183.749 80.886 C 183.749 81.207,183.626 81.256,182.825 81.256 C 182.128 81.256,181.902 81.323,181.902 81.533 C 181.902 81.715,181.720 81.810,181.368 81.810 C 181.063 81.810,180.788 81.929,180.727 82.087 C 180.654 82.277,180.358 82.364,179.784 82.364 C 179.163 82.364,178.947 82.435,178.947 82.641 C 178.947 82.849,178.723 82.918,178.039 82.918 C 176.958 82.918,176.547 83.051,176.547 83.399 C 176.547 83.585,176.289 83.657,175.623 83.657 L 174.700 83.657 174.700 85.688 L 174.700 87.719 175.210 87.719 C 175.519 87.719,175.810 87.864,175.950 88.089 C 176.147 88.405,176.380 88.458,177.564 88.458 C 178.671 88.458,178.947 88.513,178.947 88.735 C 178.947 88.920,179.132 89.012,179.501 89.012 C 179.871 89.012,180.055 89.104,180.055 89.289 C 180.055 89.441,180.150 89.566,180.265 89.566 C 180.630 89.566,181.348 90.490,181.348 90.961 C 181.348 91.239,181.454 91.413,181.625 91.413 C 181.869 91.413,181.902 93.103,181.902 105.520 C 181.902 117.890,181.936 119.641,182.179 119.734 C 182.369 119.807,182.456 120.104,182.456 120.677 C 182.456 121.391,182.510 121.514,182.825 121.514 C 183.124 121.514,183.195 121.637,183.195 122.161 C 183.195 122.612,183.278 122.807,183.472 122.807 C 183.657 122.807,183.749 122.992,183.749 123.367 C 183.749 123.694,183.864 123.971,184.026 124.033 C 184.184 124.094,184.303 124.369,184.303 124.673 C 184.303 125.025,184.397 125.208,184.580 125.208 C 184.732 125.208,184.857 125.332,184.857 125.485 C 184.857 125.639,185.021 125.762,185.226 125.762 C 185.472 125.762,185.596 125.885,185.596 126.131 C 185.596 126.336,185.719 126.500,185.873 126.500 C 186.025 126.500,186.150 126.625,186.150 126.777 C 186.150 126.930,186.274 127.054,186.427 127.054 C 186.579 127.054,186.704 127.179,186.704 127.331 C 186.704 127.484,186.819 127.608,186.961 127.608 C 187.102 127.608,187.266 127.733,187.324 127.886 C 187.383 128.038,187.548 128.163,187.692 128.163 C 187.836 128.163,187.997 128.329,188.050 128.532 C 188.114 128.776,188.302 128.901,188.606 128.901 C 188.858 128.901,189.113 129.026,189.171 129.178 C 189.233 129.340,189.510 129.455,189.837 129.455 C 190.212 129.455,190.397 129.547,190.397 129.732 C 190.397 129.942,190.623 130.009,191.320 130.009 C 192.121 130.009,192.244 130.058,192.244 130.379 C 192.244 130.738,192.366 130.748,196.907 130.745 C 201.770 130.743,202.401 130.688,202.401 130.265 C 202.401 130.073,202.702 130.009,203.601 130.009 C 204.545 130.009,204.801 129.950,204.801 129.732 C 204.801 129.547,204.987 129.455,205.361 129.455 C 205.689 129.455,205.965 129.340,206.027 129.178 C 206.097 128.996,206.386 128.901,206.870 128.901 C 207.451 128.901,207.627 128.823,207.703 128.532 C 207.756 128.327,207.955 128.163,208.147 128.163 C 208.338 128.163,208.495 128.038,208.495 127.886 C 208.495 127.701,208.680 127.608,209.049 127.608 C 209.418 127.608,209.603 127.516,209.603 127.331 C 209.603 127.178,209.767 127.054,209.972 127.054 C 210.177 127.054,210.342 126.931,210.342 126.777 C 210.342 126.602,210.518 126.500,210.821 126.500 C 211.144 126.500,211.331 126.381,211.396 126.131 C 211.449 125.928,211.608 125.762,211.748 125.762 C 211.889 125.762,212.004 125.637,212.004 125.485 C 212.004 125.332,212.128 125.208,212.281 125.208 C 212.465 125.208,212.558 125.023,212.558 124.654 C 212.558 124.284,212.465 124.100,212.281 124.100 C 212.127 124.100,212.004 123.936,212.004 123.730 C 212.004 123.525,211.881 123.361,211.727 123.361 C 211.574 123.361,211.450 123.236,211.450 123.084 C 211.450 122.932,211.325 122.807,211.173 122.807 C 210.988 122.807,210.896 122.622,210.896 122.253 L 210.896 121.699 209.695 121.699 C 208.751 121.699,208.495 121.758,208.495 121.976 C 208.495 122.185,208.269 122.253,207.572 122.253 C 206.874 122.253,206.648 122.321,206.648 122.530 C 206.648 122.760,206.289 122.807,204.524 122.807 C 202.760 122.807,202.401 122.760,202.401 122.530 C 202.401 122.378,202.276 122.253,202.124 122.253 C 201.971 122.253,201.847 122.128,201.847 121.976 C 201.847 121.783,201.652 121.699,201.200 121.699 C 200.585 121.699,200.554 121.668,200.554 121.053 C 200.554 120.601,200.470 120.406,200.277 120.406 C 200.125 120.406,200.000 120.282,200.000 120.129 C 200.000 119.977,199.875 119.852,199.723 119.852 C 199.507 119.852,199.446 119.604,199.446 118.727 C 199.446 117.757,199.395 117.588,199.077 117.505 C 198.712 117.410,198.707 117.253,198.707 104.134 C 198.707 90.982,198.711 90.859,199.077 90.859 C 199.376 90.859,199.446 90.736,199.446 90.212 C 199.446 89.761,199.530 89.566,199.723 89.566 C 199.875 89.566,200.000 89.441,200.000 89.289 C 200.000 89.137,200.125 89.012,200.277 89.012 C 200.429 89.012,200.554 88.887,200.554 88.735 C 200.554 88.519,200.802 88.458,201.679 88.458 C 202.649 88.458,202.818 88.407,202.901 88.089 C 202.996 87.728,203.153 87.719,209.972 87.719 C 216.791 87.719,216.949 87.728,217.043 88.089 C 217.129 88.417,217.295 88.458,218.542 88.458 C 219.666 88.458,219.945 88.513,219.945 88.735 C 219.945 88.887,220.069 89.012,220.222 89.012 C 220.374 89.012,220.499 89.137,220.499 89.289 C 220.499 89.441,220.578 89.566,220.675 89.566 C 221.028 89.566,221.791 90.518,221.791 90.959 C 221.791 91.239,221.897 91.413,222.068 91.413 C 222.312 91.413,222.345 93.218,222.345 106.556 C 222.345 119.893,222.312 121.699,222.068 121.699 C 221.916 121.699,221.791 121.824,221.791 121.976 C 221.791 122.128,221.705 122.253,221.600 122.253 C 221.495 122.253,221.166 122.502,220.868 122.807 C 220.570 123.112,220.240 123.361,220.135 123.361 C 220.031 123.361,219.945 123.527,219.945 123.730 C 219.945 124.029,219.821 124.100,219.298 124.100 C 218.847 124.100,218.652 124.183,218.652 124.377 C 218.652 124.582,218.436 124.654,217.821 124.654 C 217.205 124.654,216.990 124.726,216.990 124.931 C 216.990 125.085,216.826 125.208,216.620 125.208 C 216.270 125.208,216.251 125.331,216.251 127.608 L 216.251 130.009 231.025 130.009 L 245.799 130.009 245.799 127.608 C 245.799 125.598,245.754 125.208,245.522 125.208 C 245.369 125.208,245.245 125.083,245.245 124.931 C 245.245 124.713,244.988 124.654,244.044 124.654 C 243.100 124.654,242.844 124.595,242.844 124.377 C 242.844 124.183,242.649 124.100,242.198 124.100 C 241.674 124.100,241.551 124.029,241.551 123.730 C 241.551 123.525,241.428 123.361,241.274 123.361 C 241.122 123.361,240.997 123.236,240.997 123.084 C 240.997 122.932,240.873 122.807,240.720 122.807 C 240.568 122.807,240.443 122.682,240.443 122.530 C 240.443 122.378,240.319 122.253,240.166 122.253 C 239.980 122.253,239.889 122.066,239.889 121.682 C 239.889 121.266,239.789 121.084,239.520 121.014 C 239.154 120.918,239.151 120.762,239.151 101.918 C 239.151 85.152,239.118 82.918,238.873 82.918 C 238.689 82.918,238.596 82.733,238.596 82.364 C 238.596 82.013,238.502 81.810,238.339 81.810 C 238.198 81.810,238.034 81.685,237.976 81.533 C 237.915 81.374,237.639 81.256,237.331 81.256 C 236.948 81.256,236.765 81.149,236.696 80.886 C 236.526 80.236,229.548 80.345,229.548 80.999 C 229.548 81.203,229.129 81.256,227.510 81.256 C 225.870 81.256,225.452 81.310,225.367 81.533 C 225.279 81.763,224.764 81.810,222.326 81.810 C 219.840 81.810,219.391 81.852,219.391 82.087 C 219.391 82.329,218.324 82.364,210.896 82.364 C 203.468 82.364,202.401 82.329,202.401 82.087 C 202.401 81.878,202.175 81.810,201.477 81.810 C 200.780 81.810,200.554 81.742,200.554 81.533 C 200.554 81.380,200.429 81.256,200.277 81.256 C 200.125 81.256,200.000 81.129,200.000 80.973 C 200.000 80.817,199.875 80.642,199.723 80.584 C 199.571 80.525,199.446 80.271,199.446 80.018 C 199.446 79.714,199.321 79.526,199.077 79.463 C 198.721 79.370,198.707 79.211,198.707 75.140 C 198.707 71.507,198.668 70.914,198.430 70.914 C 198.248 70.914,198.153 70.732,198.153 70.383 C 198.153 69.704,197.780 69.621,194.696 69.621 C 192.549 69.621,192.387 69.646,192.297 69.991 M268.375 80.639 C 268.248 80.691,268.144 80.850,268.144 80.994 C 268.144 81.198,267.818 81.256,266.667 81.256 C 265.477 81.256,265.189 81.310,265.189 81.533 C 265.189 81.742,264.964 81.810,264.266 81.810 C 263.568 81.810,263.343 81.878,263.343 82.087 C 263.343 82.296,263.117 82.364,262.419 82.364 C 261.722 82.364,261.496 82.432,261.496 82.641 C 261.496 82.824,261.313 82.918,260.957 82.918 C 260.232 82.918,259.834 83.088,259.834 83.399 C 259.834 83.570,259.617 83.657,259.187 83.657 C 258.736 83.657,258.541 83.740,258.541 83.934 C 258.541 84.119,258.356 84.211,257.981 84.211 C 257.654 84.211,257.377 84.326,257.315 84.488 C 257.257 84.640,257.042 84.765,256.839 84.765 C 256.425 84.765,255.594 85.471,255.590 85.826 C 255.588 85.967,255.332 86.057,254.940 86.057 C 254.489 86.057,254.294 86.141,254.294 86.334 C 254.294 86.487,254.169 86.611,254.017 86.611 C 253.864 86.611,253.740 86.736,253.740 86.888 C 253.740 87.041,253.615 87.165,253.463 87.165 C 253.310 87.165,253.186 87.298,253.186 87.460 C 253.186 87.621,253.019 87.797,252.816 87.850 C 252.613 87.904,252.447 88.062,252.447 88.203 C 252.447 88.343,252.322 88.458,252.170 88.458 C 252.018 88.458,251.893 88.583,251.893 88.735 C 251.893 88.887,251.768 89.012,251.616 89.012 C 251.464 89.012,251.339 89.137,251.339 89.289 C 251.339 89.441,251.220 89.566,251.074 89.566 C 250.929 89.566,250.757 89.732,250.693 89.935 C 250.628 90.139,250.456 90.305,250.311 90.305 C 250.140 90.305,250.046 90.501,250.046 90.859 C 250.046 91.228,249.954 91.413,249.769 91.413 C 249.617 91.413,249.492 91.529,249.492 91.670 C 249.492 91.811,249.367 91.975,249.215 92.034 C 249.053 92.096,248.938 92.372,248.938 92.700 C 248.938 93.136,248.857 93.259,248.569 93.259 C 248.285 93.259,248.199 93.383,248.199 93.794 C 248.199 94.098,248.080 94.374,247.922 94.434 C 247.761 94.496,247.645 94.773,247.645 95.100 C 247.645 95.475,247.554 95.660,247.368 95.660 C 247.175 95.660,247.091 95.855,247.091 96.307 C 247.091 96.758,247.008 96.953,246.814 96.953 C 246.610 96.953,246.537 97.166,246.537 97.762 C 246.537 98.417,246.467 98.590,246.168 98.668 C 245.837 98.755,245.799 98.920,245.799 100.260 C 245.799 101.465,245.745 101.754,245.522 101.754 C 245.283 101.754,245.245 102.401,245.245 106.469 C 245.245 110.490,245.285 111.200,245.522 111.291 C 245.725 111.369,245.799 111.690,245.799 112.502 C 245.799 113.453,245.851 113.622,246.168 113.705 C 246.474 113.785,246.537 113.956,246.537 114.703 C 246.537 115.381,246.606 115.605,246.814 115.605 C 246.999 115.605,247.091 115.789,247.091 116.159 C 247.091 116.528,247.184 116.713,247.368 116.713 C 247.562 116.713,247.645 116.908,247.645 117.359 C 247.645 117.811,247.729 118.006,247.922 118.006 C 248.107 118.006,248.199 118.190,248.199 118.560 C 248.199 118.990,248.282 119.114,248.569 119.114 C 248.868 119.114,248.938 119.237,248.938 119.760 C 248.938 120.211,249.022 120.406,249.215 120.406 C 249.367 120.406,249.492 120.531,249.492 120.683 C 249.492 120.836,249.617 120.960,249.769 120.960 C 249.922 120.960,250.046 121.085,250.046 121.237 C 250.046 121.390,250.171 121.514,250.323 121.514 C 250.476 121.514,250.600 121.647,250.600 121.809 C 250.600 121.970,250.766 122.146,250.970 122.199 C 251.231 122.268,251.339 122.451,251.339 122.829 C 251.339 123.297,251.405 123.361,251.893 123.361 C 252.277 123.361,252.447 123.451,252.447 123.655 C 252.447 123.817,252.613 123.993,252.816 124.046 C 253.019 124.099,253.186 124.258,253.186 124.398 C 253.186 124.539,253.310 124.654,253.463 124.654 C 253.615 124.654,253.740 124.778,253.740 124.931 C 253.740 125.083,253.864 125.208,254.017 125.208 C 254.169 125.208,254.294 125.332,254.294 125.485 C 254.294 125.678,254.489 125.762,254.940 125.762 C 255.463 125.762,255.586 125.832,255.586 126.131 C 255.586 126.336,255.709 126.500,255.863 126.500 C 256.016 126.500,256.140 126.625,256.140 126.777 C 256.140 126.962,256.325 127.054,256.694 127.054 C 257.064 127.054,257.248 127.147,257.248 127.331 C 257.248 127.525,257.443 127.608,257.895 127.608 C 258.346 127.608,258.541 127.692,258.541 127.886 C 258.541 128.068,258.723 128.163,259.074 128.163 C 259.451 128.163,259.634 128.270,259.703 128.532 C 259.773 128.801,259.955 128.901,260.371 128.901 C 260.755 128.901,260.942 128.992,260.942 129.178 C 260.942 129.388,261.168 129.455,261.865 129.455 C 262.563 129.455,262.789 129.523,262.789 129.732 C 262.789 129.950,263.043 130.009,263.967 130.009 C 264.991 130.009,265.159 130.058,265.243 130.379 C 265.337 130.738,265.495 130.748,271.191 130.748 C 276.888 130.748,277.045 130.738,277.139 130.379 C 277.223 130.058,277.391 130.009,278.415 130.009 C 279.340 130.009,279.594 129.950,279.594 129.732 C 279.594 129.523,279.819 129.455,280.517 129.455 C 281.215 129.455,281.440 129.388,281.440 129.178 C 281.440 128.986,281.634 128.901,282.072 128.901 C 282.885 128.901,283.287 128.742,283.287 128.420 C 283.287 128.257,283.491 128.163,283.841 128.163 C 284.211 128.163,284.395 128.070,284.395 127.886 C 284.395 127.732,284.559 127.608,284.765 127.608 C 284.970 127.608,285.134 127.485,285.134 127.331 C 285.134 127.147,285.319 127.054,285.688 127.054 C 286.057 127.054,286.242 126.962,286.242 126.777 C 286.242 126.625,286.367 126.500,286.519 126.500 C 286.673 126.500,286.796 126.336,286.796 126.131 C 286.796 125.832,286.919 125.762,287.442 125.762 C 287.894 125.762,288.089 125.678,288.089 125.485 C 288.089 125.332,288.213 125.208,288.366 125.208 C 288.518 125.208,288.643 125.083,288.643 124.931 C 288.643 124.777,288.807 124.654,289.012 124.654 C 289.217 124.654,289.381 124.531,289.381 124.377 C 289.381 124.224,289.506 124.100,289.658 124.100 C 289.812 124.100,289.935 123.936,289.935 123.730 C 289.935 123.443,290.058 123.361,290.489 123.361 C 290.982 123.361,291.043 123.299,291.043 122.807 C 291.043 122.376,291.125 122.253,291.413 122.253 C 291.659 122.253,291.782 122.130,291.782 121.884 C 291.782 121.678,291.905 121.514,292.059 121.514 C 292.211 121.514,292.336 121.390,292.336 121.237 C 292.336 121.085,292.461 120.960,292.613 120.960 C 292.765 120.960,292.890 120.836,292.890 120.683 C 292.890 120.531,293.015 120.406,293.167 120.406 C 293.376 120.406,293.444 120.181,293.444 119.483 C 293.444 118.785,293.376 118.560,293.167 118.560 C 293.015 118.560,292.890 118.435,292.890 118.283 C 292.890 118.130,292.765 118.006,292.613 118.006 C 292.461 118.006,292.336 117.881,292.336 117.729 C 292.336 117.575,292.172 117.452,291.967 117.452 C 291.759 117.452,291.597 117.328,291.597 117.170 C 291.597 117.005,291.368 116.842,291.043 116.777 C 290.739 116.717,290.489 116.552,290.489 116.413 C 290.489 116.254,290.282 116.159,289.935 116.159 C 289.587 116.159,289.381 116.254,289.381 116.414 C 289.381 116.555,289.215 116.713,289.012 116.766 C 288.809 116.819,288.643 116.995,288.643 117.157 C 288.643 117.319,288.518 117.452,288.366 117.452 C 288.213 117.452,288.089 117.576,288.089 117.729 C 288.089 117.913,287.904 118.006,287.535 118.006 C 287.165 118.006,286.981 118.098,286.981 118.283 C 286.981 118.436,286.816 118.560,286.611 118.560 C 286.408 118.560,286.242 118.674,286.242 118.813 C 286.242 118.953,285.993 119.117,285.688 119.178 C 285.363 119.243,285.134 119.405,285.134 119.571 C 285.134 119.769,284.944 119.852,284.488 119.852 C 284.036 119.852,283.841 119.936,283.841 120.129 C 283.841 120.339,283.615 120.406,282.918 120.406 C 282.220 120.406,281.994 120.474,281.994 120.683 C 281.994 120.918,281.542 120.960,279.034 120.960 C 276.573 120.960,276.055 120.914,275.967 120.683 C 275.890 120.481,275.572 120.406,274.792 120.406 C 274.013 120.406,273.695 120.331,273.617 120.129 C 273.557 119.971,273.281 119.852,272.973 119.852 C 272.590 119.852,272.407 119.746,272.338 119.483 C 272.274 119.238,272.086 119.114,271.782 119.114 C 271.530 119.114,271.275 118.989,271.217 118.837 C 271.158 118.684,270.983 118.560,270.828 118.560 C 270.672 118.560,270.545 118.435,270.545 118.283 C 270.545 118.130,270.420 118.006,270.268 118.006 C 270.115 118.006,269.991 117.881,269.991 117.729 C 269.991 117.535,269.796 117.452,269.344 117.452 C 268.729 117.452,268.698 117.421,268.698 116.805 C 268.698 116.354,268.615 116.159,268.421 116.159 C 268.269 116.159,268.144 116.034,268.144 115.882 C 268.144 115.729,268.019 115.605,267.867 115.605 C 267.715 115.605,267.590 115.480,267.590 115.328 C 267.590 115.175,267.465 115.051,267.313 115.051 C 267.161 115.051,267.036 114.918,267.036 114.756 C 267.036 114.595,266.870 114.419,266.667 114.366 C 266.405 114.297,266.297 114.114,266.297 113.737 C 266.297 113.386,266.202 113.204,266.020 113.204 C 265.827 113.204,265.743 113.009,265.743 112.558 C 265.743 112.106,265.660 111.911,265.466 111.911 C 265.261 111.911,265.189 111.696,265.189 111.080 C 265.189 110.465,265.117 110.249,264.912 110.249 C 264.734 110.249,264.634 110.069,264.633 109.741 C 264.629 108.951,264.432 108.403,264.152 108.403 C 263.961 108.403,263.897 108.101,263.897 107.202 C 263.897 106.258,263.837 106.002,263.620 106.002 C 263.380 106.002,263.343 105.304,263.343 100.831 C 263.343 96.358,263.380 95.660,263.620 95.660 C 263.828 95.660,263.897 95.437,263.897 94.758 C 263.897 94.012,263.960 93.840,264.266 93.760 C 264.510 93.696,264.635 93.508,264.635 93.204 C 264.635 92.952,264.760 92.697,264.912 92.639 C 265.074 92.577,265.189 92.300,265.189 91.973 C 265.189 91.598,265.281 91.413,265.466 91.413 C 265.651 91.413,265.743 91.228,265.743 90.859 C 265.743 90.489,265.836 90.305,266.020 90.305 C 266.174 90.305,266.297 90.141,266.297 89.935 C 266.297 89.689,266.420 89.566,266.667 89.566 C 266.872 89.566,267.036 89.443,267.036 89.289 C 267.036 89.137,267.161 89.012,267.313 89.012 C 267.465 89.012,267.590 88.887,267.590 88.735 C 267.590 88.560,267.766 88.458,268.069 88.458 C 268.393 88.458,268.579 88.338,268.645 88.089 C 268.698 87.884,268.896 87.719,269.089 87.719 C 269.280 87.719,269.437 87.599,269.437 87.451 C 269.437 87.150,270.815 87.027,272.992 87.134 C 273.916 87.180,274.238 87.263,274.238 87.457 C 274.238 87.624,274.435 87.719,274.780 87.719 C 275.159 87.719,275.356 87.830,275.439 88.089 C 275.503 88.292,275.675 88.458,275.820 88.458 C 275.966 88.458,276.085 88.583,276.085 88.735 C 276.085 88.887,276.210 89.012,276.362 89.012 C 276.514 89.012,276.639 89.137,276.639 89.289 C 276.639 89.441,276.764 89.566,276.916 89.566 C 277.101 89.566,277.193 89.751,277.193 90.126 C 277.193 90.453,277.308 90.730,277.470 90.792 C 277.624 90.851,277.747 91.126,277.747 91.413 C 277.747 91.700,277.624 91.974,277.470 92.034 C 277.238 92.122,277.193 92.670,277.193 95.377 C 277.193 98.132,277.234 98.615,277.470 98.615 C 277.657 98.615,277.747 98.802,277.747 99.186 C 277.747 99.602,277.847 99.784,278.116 99.854 C 278.378 99.923,278.486 100.106,278.486 100.483 C 278.486 100.833,278.581 101.016,278.763 101.016 C 278.915 101.016,279.040 101.108,279.040 101.221 C 279.040 101.625,279.875 102.302,280.379 102.305 C 280.705 102.307,280.886 102.407,280.886 102.585 C 280.886 102.770,281.071 102.862,281.440 102.862 C 281.810 102.862,281.994 102.955,281.994 103.139 C 281.994 103.374,282.456 103.416,285.042 103.416 C 287.627 103.416,288.089 103.374,288.089 103.139 C 288.089 102.946,288.284 102.862,288.735 102.862 C 289.186 102.862,289.381 102.779,289.381 102.585 C 289.381 102.401,289.566 102.308,289.935 102.308 C 290.305 102.308,290.489 102.216,290.489 102.031 C 290.489 101.879,290.614 101.754,290.766 101.754 C 290.919 101.754,291.043 101.598,291.043 101.407 C 291.043 101.214,291.208 101.016,291.413 100.962 C 291.662 100.897,291.782 100.710,291.782 100.387 C 291.782 100.084,291.884 99.908,292.059 99.908 C 292.253 99.908,292.336 99.713,292.336 99.261 C 292.336 98.810,292.420 98.615,292.613 98.615 C 292.848 98.615,292.890 98.164,292.890 95.660 C 292.890 93.157,292.848 92.705,292.613 92.705 C 292.404 92.705,292.336 92.480,292.336 91.782 C 292.336 91.084,292.268 90.859,292.059 90.859 C 291.873 90.859,291.782 90.672,291.782 90.287 C 291.782 89.871,291.682 89.690,291.413 89.620 C 291.151 89.551,291.043 89.368,291.043 88.990 C 291.043 88.640,290.949 88.458,290.766 88.458 C 290.614 88.458,290.489 88.333,290.489 88.181 C 290.489 88.029,290.365 87.904,290.212 87.904 C 290.058 87.904,289.935 87.740,289.935 87.535 C 289.935 87.331,289.820 87.165,289.678 87.165 C 289.537 87.165,289.373 87.041,289.315 86.888 C 289.256 86.736,289.081 86.611,288.925 86.611 C 288.770 86.611,288.643 86.487,288.643 86.334 C 288.643 86.182,288.518 86.057,288.366 86.057 C 288.213 86.057,288.089 85.978,288.089 85.881 C 288.089 85.527,287.136 84.765,286.695 84.765 C 286.415 84.765,286.242 84.659,286.242 84.488 C 286.242 84.335,286.117 84.211,285.965 84.211 C 285.813 84.211,285.688 84.086,285.688 83.934 C 285.688 83.742,285.495 83.657,285.063 83.657 C 284.594 83.657,284.414 83.565,284.342 83.287 C 284.278 83.043,284.090 82.918,283.786 82.918 C 283.533 82.918,283.279 82.793,283.220 82.641 C 283.148 82.451,282.851 82.364,282.277 82.364 C 281.657 82.364,281.440 82.292,281.440 82.087 C 281.440 81.878,281.215 81.810,280.517 81.810 C 279.819 81.810,279.594 81.742,279.594 81.533 C 279.594 81.310,279.309 81.256,278.138 81.256 C 276.837 81.256,276.672 81.216,276.585 80.886 C 276.492 80.529,269.194 80.309,268.375 80.639 M148.107 81.533 C 148.107 81.765,147.717 81.810,145.706 81.810 C 143.695 81.810,143.306 81.855,143.306 82.087 C 143.306 82.305,143.049 82.364,142.105 82.364 C 141.161 82.364,140.905 82.423,140.905 82.641 C 140.905 82.849,140.681 82.918,139.997 82.918 C 138.916 82.918,138.504 83.051,138.504 83.399 C 138.504 83.570,138.287 83.657,137.858 83.657 C 137.406 83.657,137.211 83.740,137.211 83.934 C 137.211 84.139,136.996 84.211,136.380 84.211 C 135.765 84.211,135.549 84.282,135.549 84.488 C 135.549 84.641,135.385 84.765,135.180 84.765 C 134.975 84.765,134.811 84.888,134.811 85.042 C 134.811 85.217,134.634 85.319,134.332 85.319 C 134.008 85.319,133.821 85.438,133.756 85.688 C 133.703 85.892,133.504 86.057,133.312 86.057 C 133.121 86.057,132.964 86.182,132.964 86.334 C 132.964 86.519,132.779 86.611,132.410 86.611 C 132.041 86.611,131.856 86.704,131.856 86.888 C 131.856 87.041,131.731 87.165,131.579 87.165 C 131.425 87.165,131.302 87.329,131.302 87.535 C 131.302 87.781,131.179 87.904,130.933 87.904 C 130.645 87.904,130.563 88.027,130.563 88.458 C 130.563 88.827,130.471 89.012,130.286 89.012 C 130.134 89.012,130.009 89.137,130.009 89.289 C 130.009 89.441,129.885 89.566,129.732 89.566 C 129.539 89.566,129.455 89.761,129.455 90.212 C 129.455 90.664,129.372 90.859,129.178 90.859 C 128.994 90.859,128.901 91.043,128.901 91.406 C 128.901 91.765,128.774 92.022,128.532 92.151 C 128.199 92.330,128.163 92.538,128.163 94.282 C 128.163 96.091,128.186 96.214,128.532 96.214 C 128.852 96.214,128.901 96.337,128.901 97.138 C 128.901 97.835,128.969 98.061,129.178 98.061 C 129.331 98.061,129.455 98.186,129.455 98.338 C 129.455 98.490,129.580 98.615,129.732 98.615 C 129.886 98.615,130.009 98.779,130.009 98.984 C 130.009 99.189,130.132 99.354,130.286 99.354 C 130.439 99.354,130.563 99.478,130.563 99.631 C 130.563 99.785,130.727 99.908,130.933 99.908 C 131.138 99.908,131.302 100.031,131.302 100.185 C 131.302 100.369,131.487 100.462,131.856 100.462 C 132.225 100.462,132.410 100.554,132.410 100.739 C 132.410 100.956,132.664 101.016,133.589 101.016 C 134.612 101.016,134.780 101.064,134.864 101.385 C 134.951 101.718,135.116 101.754,136.546 101.754 C 137.932 101.754,138.161 101.708,138.362 101.385 C 138.541 101.100,138.793 101.016,139.472 101.016 C 140.130 101.016,140.351 100.946,140.351 100.739 C 140.351 100.554,140.536 100.462,140.905 100.462 C 141.274 100.462,141.459 100.369,141.459 100.185 C 141.459 100.032,141.584 99.908,141.736 99.908 C 141.888 99.908,142.013 99.793,142.013 99.652 C 142.013 99.512,142.179 99.353,142.382 99.300 C 142.585 99.247,142.752 99.071,142.752 98.909 C 142.752 98.747,142.876 98.615,143.029 98.615 C 143.181 98.615,143.306 98.490,143.306 98.338 C 143.306 98.186,143.430 98.061,143.583 98.061 C 143.767 98.061,143.860 97.876,143.860 97.507 C 143.860 97.138,143.952 96.953,144.137 96.953 C 144.328 96.953,144.414 96.760,144.414 96.328 C 144.414 95.859,144.505 95.679,144.783 95.607 C 145.114 95.520,145.152 95.355,145.152 94.015 C 145.152 92.810,145.206 92.521,145.429 92.521 C 145.656 92.521,145.706 92.203,145.706 90.766 C 145.706 89.330,145.757 89.012,145.983 89.012 C 146.177 89.012,146.260 88.817,146.260 88.366 C 146.260 87.842,146.331 87.719,146.630 87.719 C 146.835 87.719,146.999 87.596,146.999 87.442 C 146.999 87.258,147.184 87.165,147.553 87.165 C 147.922 87.165,148.107 87.073,148.107 86.888 C 148.107 86.658,148.466 86.611,150.231 86.611 C 151.995 86.611,152.355 86.658,152.355 86.888 C 152.355 87.041,152.479 87.165,152.632 87.165 C 152.784 87.165,152.909 87.290,152.909 87.442 C 152.909 87.596,153.073 87.719,153.278 87.719 C 153.486 87.719,153.647 87.842,153.647 88.002 C 153.647 88.158,153.772 88.333,153.924 88.391 C 154.077 88.450,154.201 88.613,154.201 88.755 C 154.201 88.896,154.326 89.012,154.478 89.012 C 154.663 89.012,154.755 89.197,154.755 89.566 C 154.755 89.935,154.848 90.120,155.032 90.120 C 155.248 90.120,155.309 90.366,155.309 91.222 C 155.309 92.134,155.373 92.357,155.679 92.521 C 156.024 92.706,156.048 92.907,156.048 95.645 C 156.048 98.417,156.028 98.577,155.679 98.668 C 155.410 98.739,155.309 98.920,155.309 99.336 C 155.309 99.721,155.219 99.908,155.032 99.908 C 154.880 99.908,154.755 100.032,154.755 100.185 C 154.755 100.337,154.631 100.462,154.478 100.462 C 154.326 100.462,154.201 100.586,154.201 100.739 C 154.201 100.925,154.015 101.016,153.630 101.016 C 153.214 101.016,153.032 101.116,152.962 101.385 C 152.879 101.702,152.710 101.754,151.773 101.754 C 150.973 101.754,150.653 101.828,150.575 102.031 C 150.489 102.254,150.074 102.308,148.451 102.308 C 146.828 102.308,146.413 102.363,146.327 102.585 C 146.245 102.799,145.889 102.862,144.763 102.862 C 143.591 102.862,143.306 102.917,143.306 103.139 C 143.306 103.342,143.094 103.417,142.521 103.418 C 141.262 103.422,140.351 103.625,140.351 103.902 C 140.351 104.083,140.086 104.155,139.428 104.155 C 138.730 104.155,138.504 104.223,138.504 104.432 C 138.504 104.638,138.288 104.709,137.667 104.709 C 137.094 104.709,136.797 104.796,136.724 104.986 C 136.666 105.139,136.411 105.263,136.159 105.263 C 135.855 105.263,135.667 105.388,135.603 105.633 C 135.530 105.910,135.351 106.002,134.882 106.002 C 134.449 106.002,134.257 106.087,134.257 106.279 C 134.257 106.461,134.074 106.556,133.722 106.556 C 133.418 106.556,133.142 106.675,133.082 106.833 C 133.023 106.985,132.848 107.110,132.693 107.110 C 132.537 107.110,132.410 107.224,132.410 107.364 C 132.410 107.503,132.161 107.668,131.856 107.729 C 131.531 107.794,131.302 107.956,131.302 108.121 C 131.302 108.279,131.140 108.403,130.933 108.403 C 130.727 108.403,130.563 108.526,130.563 108.680 C 130.563 108.832,130.439 108.957,130.286 108.957 C 130.134 108.957,130.009 109.081,130.009 109.234 C 130.009 109.386,129.885 109.511,129.732 109.511 C 129.580 109.511,129.455 109.635,129.455 109.788 C 129.455 109.940,129.331 110.065,129.178 110.065 C 129.024 110.065,128.901 110.229,128.901 110.434 C 128.901 110.680,128.778 110.803,128.532 110.803 C 128.327 110.803,128.163 110.926,128.163 111.080 C 128.163 111.233,128.038 111.357,127.886 111.357 C 127.733 111.357,127.608 111.482,127.608 111.634 C 127.608 111.787,127.484 111.911,127.331 111.911 C 127.140 111.911,127.054 112.104,127.054 112.536 C 127.054 113.006,126.963 113.185,126.685 113.258 C 126.441 113.321,126.316 113.509,126.316 113.813 C 126.316 114.066,126.191 114.320,126.039 114.379 C 125.836 114.457,125.762 114.777,125.762 115.579 C 125.762 116.381,125.688 116.702,125.485 116.780 C 125.259 116.866,125.208 117.313,125.208 119.200 C 125.208 121.134,125.253 121.514,125.485 121.514 C 125.694 121.514,125.762 121.740,125.762 122.438 C 125.762 123.135,125.829 123.361,126.039 123.361 C 126.225 123.361,126.316 123.548,126.316 123.932 C 126.316 124.348,126.416 124.530,126.685 124.600 C 126.947 124.669,127.054 124.852,127.054 125.229 C 127.054 125.579,127.149 125.762,127.331 125.762 C 127.485 125.762,127.608 125.926,127.608 126.131 C 127.608 126.336,127.732 126.500,127.886 126.500 C 128.038 126.500,128.163 126.625,128.163 126.777 C 128.163 126.931,128.327 127.054,128.532 127.054 C 128.737 127.054,128.901 127.178,128.901 127.331 C 128.901 127.484,129.026 127.608,129.178 127.608 C 129.331 127.608,129.455 127.733,129.455 127.886 C 129.455 128.038,129.570 128.163,129.711 128.163 C 129.851 128.163,130.010 128.329,130.063 128.532 C 130.133 128.801,130.315 128.901,130.731 128.901 C 131.115 128.901,131.302 128.992,131.302 129.178 C 131.302 129.383,131.517 129.455,132.133 129.455 C 132.749 129.455,132.964 129.527,132.964 129.732 C 132.964 129.942,133.190 130.009,133.887 130.009 C 134.550 130.009,134.811 130.081,134.811 130.265 C 134.811 130.917,144.929 131.029,145.099 130.379 C 145.179 130.073,145.351 130.009,146.097 130.009 C 146.776 130.009,146.999 129.941,146.999 129.732 C 146.999 129.527,147.215 129.455,147.830 129.455 C 148.446 129.455,148.661 129.383,148.661 129.178 C 148.661 129.026,148.821 128.901,149.015 128.901 C 149.566 128.901,149.954 128.702,149.954 128.420 C 149.954 128.278,150.078 128.163,150.231 128.163 C 150.383 128.163,150.508 128.038,150.508 127.886 C 150.508 127.700,150.693 127.608,151.068 127.608 C 151.395 127.608,151.672 127.493,151.734 127.331 C 151.792 127.179,151.956 127.054,152.097 127.054 C 152.239 127.054,152.355 126.930,152.355 126.777 C 152.355 126.625,152.479 126.500,152.632 126.500 C 152.785 126.500,152.909 126.336,152.909 126.131 C 152.909 125.843,153.032 125.762,153.468 125.762 C 153.796 125.762,154.072 125.647,154.135 125.485 C 154.193 125.332,154.357 125.208,154.498 125.208 C 154.640 125.208,154.755 125.083,154.755 124.931 C 154.755 124.778,154.880 124.654,155.032 124.654 C 155.185 124.654,155.309 124.549,155.309 124.421 C 155.309 124.293,155.476 124.085,155.679 123.958 C 155.898 123.821,156.048 123.803,156.048 123.913 C 156.048 124.016,156.173 124.100,156.325 124.100 C 156.510 124.100,156.602 124.284,156.602 124.654 C 156.602 125.023,156.694 125.208,156.879 125.208 C 157.031 125.208,157.156 125.332,157.156 125.485 C 157.156 125.637,157.281 125.762,157.433 125.762 C 157.585 125.762,157.710 125.921,157.710 126.116 C 157.710 126.666,157.909 127.054,158.192 127.054 C 158.333 127.054,158.449 127.179,158.449 127.331 C 158.449 127.484,158.573 127.608,158.726 127.608 C 158.878 127.608,159.003 127.733,159.003 127.886 C 159.003 128.070,159.187 128.163,159.557 128.163 C 159.941 128.163,160.111 128.253,160.111 128.457 C 160.111 128.619,160.277 128.795,160.480 128.848 C 160.683 128.901,160.849 129.059,160.849 129.200 C 160.849 129.360,161.055 129.455,161.404 129.455 C 161.773 129.455,161.958 129.548,161.958 129.732 C 161.958 129.926,162.152 130.009,162.604 130.009 C 163.031 130.009,163.250 130.096,163.250 130.265 C 163.250 130.912,171.475 131.018,172.114 130.379 C 172.318 130.175,172.692 130.009,172.946 130.009 C 173.233 130.009,173.407 129.905,173.407 129.732 C 173.407 129.547,173.593 129.455,173.967 129.455 C 174.294 129.455,174.571 129.340,174.633 129.178 C 174.692 129.026,174.855 128.901,174.997 128.901 C 175.138 128.901,175.254 128.735,175.254 128.532 C 175.254 128.327,175.377 128.163,175.531 128.163 C 175.683 128.163,175.808 128.038,175.808 127.886 C 175.808 127.732,175.972 127.608,176.177 127.608 C 176.380 127.608,176.547 127.493,176.547 127.351 C 176.547 127.210,176.671 127.046,176.824 126.988 C 176.986 126.926,177.101 126.649,177.101 126.322 C 177.101 125.947,177.192 125.762,177.378 125.762 C 177.601 125.762,177.655 125.475,177.655 124.284 L 177.655 122.807 176.177 122.807 C 174.987 122.807,174.700 122.753,174.700 122.530 C 174.700 122.378,174.584 122.253,174.443 122.253 C 174.301 122.253,174.138 122.128,174.079 121.976 C 174.021 121.824,173.846 121.699,173.690 121.699 C 173.490 121.699,173.407 121.510,173.407 121.053 C 173.407 120.601,173.324 120.406,173.130 120.406 C 172.887 120.406,172.853 118.878,172.853 107.756 C 172.853 96.635,172.820 95.106,172.576 95.106 C 172.353 95.106,172.299 94.820,172.299 93.641 C 172.299 92.339,172.258 92.163,171.930 92.059 C 171.634 91.965,171.560 91.780,171.560 91.123 C 171.560 90.519,171.488 90.305,171.283 90.305 C 171.074 90.305,171.006 90.079,171.006 89.381 C 171.006 88.684,170.939 88.458,170.729 88.458 C 170.577 88.458,170.452 88.333,170.452 88.181 C 170.452 88.029,170.328 87.904,170.175 87.904 C 169.989 87.904,169.898 87.717,169.898 87.333 C 169.898 86.917,169.798 86.735,169.529 86.665 C 169.326 86.612,169.160 86.453,169.160 86.313 C 169.160 86.172,169.035 86.057,168.883 86.057 C 168.730 86.057,168.606 85.961,168.606 85.844 C 168.606 85.449,167.130 84.211,166.659 84.211 C 166.379 84.211,166.205 84.105,166.205 83.934 C 166.205 83.751,166.023 83.657,165.673 83.657 C 165.295 83.657,165.112 83.549,165.043 83.287 C 164.973 83.018,164.792 82.918,164.376 82.918 C 163.991 82.918,163.804 82.827,163.804 82.641 C 163.804 82.432,163.579 82.364,162.881 82.364 C 162.183 82.364,161.958 82.296,161.958 82.087 C 161.958 81.859,161.629 81.810,160.111 81.810 C 158.592 81.810,158.264 81.761,158.264 81.533 C 158.264 81.293,157.577 81.256,153.186 81.256 C 148.795 81.256,148.107 81.293,148.107 81.533 M154.201 107.387 C 154.201 107.572,154.386 107.664,154.755 107.664 C 155.251 107.664,155.309 107.724,155.309 108.235 C 155.309 108.651,155.410 108.833,155.679 108.903 C 156.021 108.993,156.048 109.155,156.048 111.102 C 156.048 113.081,156.026 113.204,155.679 113.204 C 155.359 113.204,155.309 113.327,155.309 114.127 C 155.309 114.825,155.242 115.051,155.032 115.051 C 154.848 115.051,154.755 115.235,154.755 115.605 C 154.755 115.974,154.663 116.159,154.478 116.159 C 154.285 116.159,154.201 116.354,154.201 116.805 C 154.201 117.257,154.118 117.452,153.924 117.452 C 153.772 117.452,153.647 117.576,153.647 117.729 C 153.647 117.882,153.483 118.006,153.278 118.006 C 153.075 118.006,152.909 118.091,152.909 118.196 C 152.909 118.301,152.659 118.631,152.355 118.929 C 152.050 119.227,151.801 119.556,151.801 119.661 C 151.801 119.766,151.634 119.852,151.431 119.852 C 151.226 119.852,151.062 119.975,151.062 120.129 C 151.062 120.314,150.877 120.406,150.508 120.406 C 150.139 120.406,149.954 120.499,149.954 120.683 C 149.954 120.915,149.564 120.960,147.553 120.960 C 145.542 120.960,145.152 120.915,145.152 120.683 C 145.152 120.490,144.957 120.406,144.506 120.406 C 144.055 120.406,143.860 120.323,143.860 120.129 C 143.860 119.977,143.735 119.852,143.583 119.852 C 143.430 119.852,143.306 119.725,143.306 119.569 C 143.306 119.414,143.181 119.239,143.029 119.180 C 142.846 119.110,142.752 118.822,142.752 118.338 C 142.752 117.757,142.674 117.581,142.382 117.505 C 142.078 117.425,142.013 117.253,142.013 116.528 C 142.013 115.803,142.078 115.631,142.382 115.551 C 142.701 115.468,142.752 115.299,142.752 114.329 C 142.752 113.452,142.813 113.204,143.029 113.204 C 143.222 113.204,143.306 113.009,143.306 112.558 C 143.306 112.106,143.389 111.911,143.583 111.911 C 143.735 111.911,143.860 111.787,143.860 111.634 C 143.860 111.482,143.984 111.357,144.137 111.357 C 144.330 111.357,144.414 111.162,144.414 110.711 C 144.414 110.095,144.444 110.065,145.060 110.065 C 145.511 110.065,145.706 109.981,145.706 109.788 C 145.706 109.635,145.831 109.511,145.983 109.511 C 146.136 109.511,146.260 109.386,146.260 109.234 C 146.260 109.040,146.455 108.957,146.907 108.957 C 147.358 108.957,147.553 108.873,147.553 108.680 C 147.553 108.477,147.765 108.402,148.338 108.400 C 149.390 108.397,149.954 108.229,149.954 107.919 C 149.954 107.728,150.255 107.664,151.154 107.664 C 152.098 107.664,152.355 107.605,152.355 107.387 C 152.355 107.178,152.580 107.110,153.278 107.110 C 153.976 107.110,154.201 107.178,154.201 107.387 " stroke="none" fill="#040404" fill-rule="evenodd"></path></g></svg>